<?xml version="1.0" encoding="UTF-8"?>
<!DOCTYPE svg PUBLIC "-//W3C//DTD SVG 1.1//EN" "http://www.w3.org/Graphics/SVG/1.1/DTD/svg11.dtd">
<!-- Creator: CorelDRAW 2017 -->
<svg xmlns="http://www.w3.org/2000/svg" xml:space="preserve" version="1.1" style="shape-rendering:geometricPrecision; text-rendering:geometricPrecision; image-rendering:optimizeQuality; fill-rule:evenodd; clip-rule:evenodd"
viewBox="0 0 10300 7700"
 xmlns:xlink="http://www.w3.org/1999/xlink">
 <defs>
  <style type="text/css">
   <![CDATA[
    .str1 {stroke:#376C78;stroke-width:383.83;stroke-opacity:0.439216}
    .str0 {stroke:#C4EEF2;stroke-width:6.4;stroke-opacity:0.450980}
    .fil11 {fill:none}
    .fil6 {fill:none}
    .fil13 {fill:#6A473A}
    .fil12 {fill:#6B4A3A}
    .fil10 {fill:#A67458}
    .fil14 {fill:#CEB3A3}
    .fil8 {fill:white}
    .fil7 {fill:#2C8E93;fill-opacity:0.149020}
    .fil1 {fill:#3F858C;fill-opacity:0.164706}
    .fil5 {fill:#C4EEF2;fill-opacity:0.164706}
    .fil4 {fill:#C4EEF2;fill-opacity:0.176471}
    .fil2 {fill:#3F858C;fill-opacity:0.215686}
    .fil0 {fill:#3F858C;fill-opacity:0.239216}
    .fil3 {fill:#C4EEF2;fill-opacity:0.250980}
    .fil9 {fill:#A67458;fill-opacity:0.549020}
   ]]>
  </style>
 </defs>
 <g id="Warstwa_x0020_1">
  <metadata id="CorelCorpID_0Corel-Layer"/>
  <g id="Warstwa_1" data-name="Warstwa 1">
   <g id="Warstwa_10" data-name="Warstwa 10">
    <path class="fil0" d="M8761 3911c0,-1971 -1554,-3569 -3470,-3569 -1916,0 -3470,1598 -3470,3569 0,1971 1554,3569 3470,3569 1916,0 3470,-1598 3470,-3569z"/>
    <path class="fil1" d="M7473 3899c0,-1579 -1280,-2858 -2858,-2858 -1579,0 -2858,1280 -2858,2858 0,1579 1280,2858 2858,2858 1579,0 2858,-1280 2858,-2858z"/>
    <path class="fil2" d="M7701 4682c0,-1488 -1207,-2695 -2695,-2695 -1488,0 -2695,1207 -2695,2695 0,1488 1207,2695 2695,2695 1488,0 2695,-1207 2695,-2695z"/>
    <g id="Warstwa_9" data-name="Warstwa 9">
     <path class="fil3" d="M7891 2905c0,-1371 -1112,-2483 -2483,-2483 -1371,0 -2483,1112 -2483,2483 0,1371 1112,2483 2483,2483 1371,0 2483,-1112 2483,-2483z"/>
     <path class="fil4" d="M8691 3637c0,-1709 -1386,-3095 -3095,-3095 -1709,0 -3095,1386 -3095,3095 0,1709 1386,3095 3095,3095 1709,0 3095,-1386 3095,-3095z"/>
     <path class="fil5" d="M8614 4171c0,-1823 -1478,-3301 -3301,-3301 -1823,0 -3301,1478 -3301,3301 0,1823 1478,3301 3301,3301 1823,0 3301,-1478 3301,-3301z"/>
     <path class="fil6 str0" d="M5408 372c781,0 1370,290 1564,398 983,549 1714,1659 1701,2867 -17,1622 -1374,3265 -3265,3265 -1891,0 -3265,-1462 -3265,-3265 0,-1803 1462,-3265 3265,-3265z"/>
    </g>
    <g id="Warstwa_11" data-name="Warstwa 11">
     <path class="fil7" d="M7614 3297c0,-1535 -1244,-2779 -2779,-2779 -1535,0 -2779,1244 -2779,2779 0,1535 1244,2779 2779,2779 1535,0 2779,-1244 2779,-2779z"/>
    </g>
   </g>
   <g id="Warstwa_4" data-name="Warstwa 4">
    <polygon class="fil8" points="4643,2621 4199,4810 4704,4932 4254,7024 5014,7218 5519,5078 5939,5181 6462,2949 8213,3241 8213,2213 6748,2043 4838,1647 3172,1197 2855,2158 "/>
   </g>
   <g id="Warstwa_2" data-name="Warstwa 2">
    <polygon class="fil9" points="4643,2621 4199,4810 4704,4932 4254,7024 5014,7218 5519,5078 5939,5181 6462,2949 8213,3241 8213,2213 6748,2043 4838,1647 3172,1197 2855,2158 "/>
   </g>
   <g id="Warstwa_12" data-name="Warstwa 12">
    <g>
     <path class="fil8" d="M4254 7024l-33 127 697 174c0,0 129,-17 129,-19 0,-2 -25,-81 -25,-81l-30 -12 -738 -189zm0 0l0 0 0 0z"/>
    </g>
   </g>
   <g id="Warstwa_13" data-name="Warstwa 13">
    <path class="fil9" d="M4254 7024l-33 127 697 174c0,0 129,-17 129,-19 0,-2 -25,-81 -25,-81l-30 -12m-738 -189l0 0 0 0z"/>
   </g>
   <path class="fil8" d="M5395 1856c-126,-89 -205,-240 -230,-397 -25,-157 0,-319 52,-469 22,-65 50,-128 89,-183 47,-67 108,-122 173,-170 95,-71 201,-131 317,-145 56,-6 112,-2 168,5 44,5 88,12 131,23 231,59 430,240 519,471 89,230 67,504 -56,716 -27,46 -58,89 -94,127 -77,81 -179,137 -287,158 -76,15 -154,13 -232,8 -117,-8 -234,-23 -350,-45 -78,-15 -144,-59 -200,-99l0 0z"/>
   <path class="fil8" d="M2346 2520c-57,-203 -11,-431 112,-602 123,-171 320,-286 528,-318 102,-16 209,-12 306,24 56,21 108,52 157,87 89,63 171,139 226,234 32,55 53,115 72,175 21,67 40,136 43,207 8,178 -88,353 -233,456 -145,103 -333,137 -509,109 -39,-6 -77,-15 -115,-24 -67,-16 -134,-32 -201,-47 -48,-11 -96,-23 -140,-44 -107,-53 -176,-159 -246,-254 -1,0 -2,0 0,-2l0 0z"/>
   <g id="Warstwa_3" data-name="Warstwa 3">
    <g id="Warstwa_6" data-name="Warstwa 6">
     <path class="fil8" d="M5478 1675c-35,-29 -65,-62 -65,-62 -56,-62 -83,-123 -93,-148 -5,-11 -21,-52 -32,-109 -11,-61 -10,-108 -9,-137 1,-39 3,-94 23,-160 37,-121 110,-197 137,-224 49,-50 96,-78 130,-98 36,-21 83,-49 151,-68 97,-27 179,-19 230,-14 32,3 74,8 125,25 117,39 189,111 221,144 109,111 145,233 153,262 11,40 37,153 5,292 -27,117 -83,193 -94,208 -103,139 -245,186 -292,201 -278,88 -522,-57 -590,-111l0 0z"/>
     <path class="fil8" d="M2409 2304c0,-53 2,-177 78,-306 52,-89 116,-141 151,-169 26,-21 68,-54 132,-82 39,-17 129,-51 246,-46 59,3 103,15 132,23 43,12 99,28 160,68 20,13 42,33 87,73 50,44 74,66 91,87 16,19 61,75 82,160 16,66 10,118 5,160 -6,48 -21,154 -96,255 -87,118 -203,161 -274,187 -43,16 -184,66 -351,37 -106,-19 -246,-73 -246,-73l0 0c0,0 -131,-96 -178,-224 -19,-51 -19,-91 -18,-151l0 0z"/>
    </g>
    <polygon class="fil10" points="5196,1755 5283,1768 5324,1729 5389,1711 5445,1691 5488,1670 5529,1611 5529,1538 5511,1451 5499,1422 5490,1328 5490,1235 5488,1155 5529,1052 5591,979 5677,938 5794,915 5862,915 5965,933 6019,952 6081,1020 6131,1091 6154,1173 6170,1282 6140,1380 6097,1476 6054,1572 6051,1654 6079,1729 6133,1823 6170,1891 6211,1971 6266,2049 6323,2108 6409,2181 6544,2254 6672,2309 6715,2332 6770,2350 6818,2368 6861,2379 7027,2379 7269,2379 7513,2395 7634,2395 7693,2395 7723,2395 7789,2366 7832,2343 7858,2336 7931,2327 7983,2318 7983,2343 7960,2363 7901,2377 7842,2395 7864,2427 7919,2493 7967,2537 8026,2587 8086,2633 8118,2653 8129,2667 8129,2687 8108,2701 8088,2715 8067,2742 8015,2742 7942,2715 7887,2683 7844,2653 7821,2628 7787,2607 7757,2571 7728,2544 7691,2544 7607,2548 7308,2566 6891,2560 6747,2548 6688,2539 6195,2304 6117,2376 6035,2502 5950,2620 5859,2742 5795,2862 5766,2924 5751,2964 5759,3011 5772,3090 5781,3172 5789,3265 5792,3324 5780,3411 5756,3534 5727,3676 5652,3980 5604,4139 5496,4533 5451,4570 5407,4700 5274,4820 5188,5205 5102,5465 5023,5649 4973,5842 4980,5927 5000,5999 5029,6093 5055,6162 5073,6221 5082,6256 5085,6291 5076,6315 5067,6336 5039,6358 4986,6376 4953,6376 4890,6362 4866,6321 4854,6260 4854,6190 4854,6105 4846,6063 4827,6011 4801,5987 4755,6041 4696,6099 4661,6148 4609,6219 4576,6271 4541,6303 4513,6303 4480,6276 4433,6212 4433,6183 4433,6137 4442,6099 4445,6079 4471,6061 4495,6044 4522,6023 4548,6003 4576,5985 4605,5959 4623,5941 4636,5921 4673,5886 4678,5868 4696,5838 4713,5813 4717,5743 4741,5473 4746,5322 4754,5102 4772,4913 4799,4738 4716,4589 4729,4466 4702,4390 4754,3954 4792,3689 4811,3520 4857,3330 4878,3230 4909,3156 4938,3104 4957,3080 4989,3037 5015,3008 5039,2979 5055,2952 5058,2921 5058,2876 5100,2350 5109,2134 5094,2093 5079,2078 5036,2075 4963,2085 4851,2090 4719,2084 4583,2075 4492,2058 4404,2037 4343,2023 4253,1992 4115,1919 3987,1834 3832,1758 3758,1711 3726,1693 3673,1702 3618,1723 3569,1735 3525,1737 3464,1740 3362,1734 3344,1720 3318,1710 3302,1676 3317,1646 3329,1625 3344,1617 3368,1606 3446,1596 3520,1583 3592,1559 3633,1542 3657,1523 3656,1498 3603,1468 3575,1450 3560,1428 3554,1409 3563,1398 3577,1415 3607,1433 3644,1448 3679,1463 3714,1479 3730,1495 3746,1524 3777,1547 3790,1558 3825,1573 3849,1586 3920,1608 3963,1626 4100,1681 4224,1731 4329,1767 4416,1798 4448,1807 4493,1822 4541,1835 4576,1843 4607,1853 4648,1862 4674,1866 4705,1860 4771,1845 4841,1837 4886,1832 4946,1820 5009,1805 5053,1789 5097,1773 5135,1764 5166,1755 "/>
   </g>
   <g id="Warstwa_7" data-name="Warstwa 7">
    <path class="fil11 str1" d="M8274 2244l0 1028 -1782 -307 -493 2247 -420 -103 -505 2141 -24 128c-50,-6 -123,-14 -210,-27 -260,-39 -613,-91 -961,-234 -268,-110 -447,-239 -608,-356 -256,-186 -719,-530 -1076,-1149 -452,-783 -461,-1532 -456,-1770 4,-202 38,-921 493,-1688 169,-285 561,-856 1286,-1268 133,-76 683,-377 1451,-447 275,-25 483,-12 529,-9 619,42 1115,265 1451,465"/>
   </g>
   <g id="Warstwa_5" data-name="Warstwa 5">
    <path class="fil12" d="M2721 2286l-11 146 -39 25 -46 25 -30 66 -23 109 0 249 14 30 14 16 14 39c0,0 -11,2 -25,0 -14,-2 -39,-9 -39,-9l-18 -30 -50 -128 32 -73 16 -91 16 -80 25 -66 11 -37 -14 -21 -37 7 -25 32 0 50 -41 30 -32 -16 -57 -39 -41 -27 -41 -34 -62 -55 -32 -39 -34 -11 -34 0 21 32 37 39 30 50 32 39 11 21 -59 -32 -48 -32 -34 -46 -50 -41 -34 16 -18 34 0 41 57 75 43 43 39 48 32 11 21 7 -7 13 -52 0 -34 -38 -48 -30 -37 -7 -14 21 25 25 82 62 37 34 43 9 37 14 43 27 68 62 18 52 -5 27 14 109 11 66 16 30 -27 80 -23 52 -27 82 -30 73 0 68 18 41 50 71 114 137 57 66 89 71 119 71 89 37 112 -25 57 -18 14 84 16 34 43 50 48 16 0 112 9 91c0,0 21,57 18,64 -2,7 0,80 0,80l0 153 34 112 0 87 18 78 -11 80 -48 75 -32 91 -7 65 0 49 2 27 -46 50 -39 57 -37 78 -43 107 -34 71 -2 25 -18 -27 -21 -37 -41 -23 -62 0 -59 46 -62 68 -80 78 -37 48 -32 66 2 96 48 80 63 52 47 27 39 0 7 -34 -2 -41 25 -71 59 -80 68 -41 -25 75 -16 114 -2 66 21 80 48 57 68 48 41 0 73 -59 68 -39 62 -2 62 2 -18 80 -14 60 11 22 21 71 25 46 30 68 28 32 43 0 41 -23 16 -7 21 7 25 -7 0 -153 -16 -73 -21 -39 14 -25 41 -68 23 -46 48 -16 144 -39 112 -32 114 -23 151 -34 71 -25 52 -7 32 -7 48 -30 52 -48 30 -66 162 21 48 -23 57 -32 50 -32 43 -96 27 -201 -21 -201 -71 -271 -194 -543 -166 -440 -75 -157 -43 -116 -18 -89 16 -64 75 -189 50 -109 52 -114 16 -25 46 -37 18 -57 7 -94 -27 -94 -32 -73 -23 -46 -11 -23 11 -87 0 -71 73 -59 43 -39 48 -30 36 -37 37 -48 14 -18 -16 0 -37 27 -23 27 -32 18 -30 11 11 -23 25 -41 14 -21 23 -27 23 -34 11 -14 14 -27 7 -11 -16 0 11 -27 -11 -18 -21 0 -41 41 -18 39 -21 11 -41 23 -16 2 2 -16 27 -25 16 -27 9 -21 18 -16 11 -11 12 -14 0 -14 -25 0 -32 30 -27 41 -23 32 -32 25 -27 18 -7 23 -27 23 -37 18 -25 11 -16 2 -21 -14 -5 -39 -11 -39 -16 -11 -32 -5 -5 16 18 23 5 27 2 46c0,0 -2,23 5,27 7,5 0,30 0,30l5 25 -5 23 5 25 5 46 16 34 9 52 -27 14 -25 18 -37 41 -11 39 -16 30 -5 25 -18 -11 -16 -24c0,0 -20,-36 -24,-37 -4,-1 -17,-43 -17,-43l-19 -37 -33 -29 -57 -47 -51 -27 -37 -13 -55 -21 -50 -27 -5 -20 -2 -35 -2 -37 -14 -15 -17 -9c0,0 -17,-4 -20,-4 -2,0 3,-18 3,-18l8 -13 3 -23 1 -32 0 -19 -7 -27 -15 -36 -17 -24 -30 -21 -47 -16 -29 -12 -45 -37 -56 -41 -37 -24 -17 0c0,0 -8,-11 -31,-9 -23,2 -35,-15 -35,-15l-41 -27 -70 -33 -40 -27 -56 -24 -58 0 -47 11 -56 26 -75 56 -55 49 -32 24 -46 46 -17 53 0 94 6 70 17 37 -36 -90 0 0z"/>
   </g>
   <g id="Warstwa_14" data-name="Warstwa 14">
    <polygon class="fil8" points="3124,4049 3157,4028 3193,4028 3264,4028 3337,4028 3365,4028 3391,4007 3425,4007 3467,4007 3580,3986 3705,3951 3818,3911 4003,3784 4107,3701 4163,3653 4175,3686 4175,3715 4104,3763 4035,3823 3898,3951 3741,4010 3580,4049 3467,4076 3449,4106 3479,4171 3505,4258 3514,4347 3493,4502 3458,4639 3473,4653 3464,4752 3452,4787 3443,4918 3428,5061 3455,5088 3467,5136 3458,5192 3440,5207 3446,5332 3458,5466 3485,5466 3493,5523 3535,5609 3505,5639 3499,5767 3493,5868 3479,5940 3428,5940 3452,5850 3467,5788 3476,5719 3476,5648 3449,5648 3422,5597 3391,5508 3425,5490 3422,5404 3407,5314 3391,5234 3391,5189 3391,5124 3391,5097 3410,5070 3410,4907 3416,4850 3422,4823 3391,4811 3391,4725 3391,4642 3425,4633 3446,4591 3455,4513 3470,4454 3464,4356 3467,4305 3455,4237 3449,4186 3443,4144 3413,4129 3431,4220 3419,4323 3391,4371 3359,4457 3300,4570 3285,4621 3240,4737 3228,4796 3237,4915 3258,4975 3222,4978 3207,4902 3202,4862 3205,4755 3234,4647 3279,4546 3356,4388 3391,4317 3391,4258 3391,4171 3377,4123 3391,4091 3297,4100 3184,4103 3124,4103 "/>
   </g>
   <g id="Warstwa_15" data-name="Warstwa 15">
    <circle class="fil8" cx="3596" cy="1627" r="24"/>
    <circle class="fil8" cx="7977" cy="2595" r="32"/>
    <circle class="fil8" cx="5001" cy="6153" r="38"/>
    <circle class="fil8" cx="4628" cy="6068" r="36"/>
    <path class="fil8" d="M5133 2383l55 24 71 18 13 9 0 19 -49 -9 -28 -7 -9 16 1 40c0,0 -6,-9 -12,0 -6,9 -9,-15 -9,-15l1 -24 0 -16 -15 -11 -12 -9 -11 -6 2 -30 0 0z"/>
   </g>
   <g id="Warstwa_7-2" data-name="Warstwa 7">
   </g>
   <g>
    <path class="fil8" d="M5934 1809c-11,8 -21,17 -32,25l32 -25zm0 0l0 0 0 0z"/>
   </g>
  </g>
  <g id="Layer_5" data-name="Layer 5">
   <path class="fil8" d="M6674 1865c1,-6 -4,-10 -7,-14 -7,-9 -16,-17 -23,-26 -14,-17 -28,-34 -42,-51 -14,-18 -21,-23 -32,-42 -15,-28 -24,-58 -35,-95 -9,-29 -17,-58 -24,-88 1,30 3,59 8,89 6,35 13,71 30,103 13,21 31,38 49,55 17,15 33,31 51,45 6,5 13,9 18,14 4,2 6,6 7,11 0,1 0,1 1,2 0,-1 0,-2 0,-3l0 0z"/>
   <path class="fil8" d="M6499 1499c-16,0 -16,23 0,24 16,0 16,-23 0,-24z"/>
   <path class="fil8" d="M6215 1985c-1,-16 -1,-32 -9,-47 -6,-12 -4,-12 -12,-26 -9,-15 -20,-29 -29,-44 -7,-10 -11,-22 -17,-32 -9,-16 -19,-30 -27,-47 -4,-8 -5,-13 -12,-27 -6,-13 -10,-19 -11,-23 -6,-15 -11,-31 -16,-46 -5,-13 -8,-26 -8,-28 -2,-23 -3,-46 -3,-70 1,-11 1,-6 3,-21 4,-28 4,-37 14,-67 3,-10 5,-20 9,-29 7,-15 10,-24 13,-30 10,-22 13,-31 20,-46 10,-20 20,-40 27,-62 13,-39 15,-116 10,-139 -2,-23 -10,-46 -17,-68 -8,-26 -18,-52 -32,-75 -7,-11 -14,-22 -23,-31 -2,-4 -3,-7 -6,-10 -8,-13 -13,-17 -24,-29 -7,-9 -14,-18 -23,-25 -8,-6 -16,-13 -24,-18 -5,-3 -11,-6 -16,-9 -10,-5 -20,-11 -31,-13 -3,-1 -6,-1 -10,-2 -11,-5 -15,-6 -32,-14 -11,-3 -23,-4 -35,-5 -12,-2 -33,-5 -54,-4 -3,0 -6,1 -9,1 -8,0 -16,0 -24,2 -9,1 -18,3 -27,6 -15,3 -30,8 -43,17 0,0 0,-1 -1,-1 -4,-5 -12,-5 -18,-4 -1,0 -3,1 -4,1 -4,-2 -9,-3 -14,-1 -5,-1 -11,-1 -16,-1 -4,0 -8,1 -12,2 -5,1 -11,1 -16,3 -6,2 -11,5 -17,9 -3,1 -6,3 -9,4 -3,0 -6,2 -10,4 -1,0 -2,0 -2,1 -13,3 -22,11 -30,20 -2,1 -4,2 -5,4 -14,8 -27,17 -39,27 -14,12 -23,28 -33,44 -5,7 -10,15 -14,23 -3,7 -6,14 -9,21 -5,14 -11,27 -14,40 -3,13 -6,27 -6,41 -2,8 -3,16 -4,23 0,10 1,20 1,30 0,55 9,85 11,123 2,25 3,51 7,76 1,18 4,34 7,52 3,18 6,46 11,74 1,5 1,11 3,27 2,7 2,27 0,36 -1,11 -2,18 -8,36 -12,12 -24,22 -30,25 0,0 0,0 0,0 -9,3 -19,5 -27,9 -11,4 -22,6 -32,11 -15,7 -30,14 -45,22 -9,6 -16,13 -24,20 0,0 -1,1 -1,1 -11,8 -20,19 -27,30 -6,9 -9,20 -11,31 -1,8 -3,16 -3,24 0,6 1,12 1,18 2,15 5,30 9,45 1,3 1,6 2,9 0,-3 0,-6 0,-9 -1,-12 0,-35 1,-42 2,-15 3,-23 9,-40 5,-13 5,-16 15,-26 12,-12 11,-10 21,-17 6,-4 11,-8 16,-13 1,0 1,-1 2,-1 15,-9 12,-6 26,-14 19,-9 18,-9 39,-15 6,-1 12,-4 17,-6 8,-3 17,-5 25,-9 9,-5 17,-12 25,-19 3,-3 7,-6 11,-10 1,0 3,1 4,1 -3,8 -3,7 -5,11 -5,8 -4,6 -16,17 -5,5 -31,22 -48,32 -13,7 -25,14 -36,24 -7,7 -14,13 -19,20 -1,1 -3,4 -3,5 0,0 -1,1 -1,1 -7,9 -14,19 -17,31 -5,21 -6,43 -1,64 2,17 8,33 17,47 2,4 6,7 8,12 0,-2 -1,-4 -2,-6 -5,-10 -7,-25 -8,-33 -1,-12 0,-23 1,-35 0,-8 4,-23 9,-38 1,-4 5,-10 6,-11 14,-17 34,-35 42,-39 8,-5 17,-9 24,-14 8,-5 16,-11 25,-15 15,-10 30,-21 42,-35 4,3 9,4 14,3 9,-3 15,-12 22,-18 15,-15 26,-32 36,-51 11,-18 13,-40 15,-61 1,-13 1,-26 -1,-39 0,-8 -2,-18 -10,-21 -2,-1 -4,-1 -6,-1 0,-10 0,-19 -1,-29 -2,-17 -3,-21 -4,-30 -3,-24 -2,-49 -7,-73 -6,-18 -9,-21 -14,-35 -4,-22 -7,-43 -10,-59 0,-4 0,-8 0,-12 3,-5 2,-11 2,-17 -2,-42 2,-85 3,-127 5,-7 9,-15 14,-22 6,-10 13,-18 20,-28 12,-15 27,-29 41,-42 1,-1 2,-2 3,-3 22,-12 42,-29 54,-50 0,0 0,1 1,1 9,17 29,26 47,26 1,0 3,0 4,0 1,0 1,0 2,0 3,0 5,1 8,1 13,2 42,12 53,19 19,8 20,7 37,17 12,7 24,12 35,20 3,2 5,3 1,0 8,7 19,11 27,17 5,4 11,9 16,14 9,10 19,19 27,29 1,5 2,10 3,14 2,13 5,27 7,40 3,12 3,24 8,36 3,7 7,18 13,27 -3,5 -3,11 -4,17 -2,15 -2,30 -3,45 0,3 -1,6 -1,7 -3,18 -4,26 -5,39 -1,19 -1,39 -2,58 -1,6 -1,5 -1,10 -3,19 -2,38 2,57 0,1 0,2 -1,3 -1,6 -2,12 -3,18 -1,7 -3,13 -4,20 -3,17 -8,34 -11,51 -3,17 -3,34 -1,51 2,13 7,25 11,38 4,11 6,20 10,29 0,1 0,1 1,2 2,6 5,13 9,18 1,2 2,5 4,7 5,9 6,12 9,19 1,2 1,5 2,7 0,1 0,1 1,2 1,5 3,11 5,15 0,0 0,0 0,0 0,0 0,0 0,0 1,1 1,2 2,2 2,2 4,3 6,3 1,2 1,4 2,6 0,1 0,1 0,2 1,5 2,11 7,14 2,2 5,2 7,2 1,2 1,3 2,5 0,1 0,1 0,2 0,0 0,0 0,0 1,1 1,3 2,4 2,3 4,4 7,4 0,0 0,0 0,1 3,4 9,3 12,-1 1,-2 1,-4 1,-6 1,2 1,3 2,5 17,30 37,58 58,85 -7,-17 -16,-37 -20,-48 -6,-17 -14,-33 -19,-50 -1,-3 -2,-7 -3,-11 0,0 0,1 0,1 4,8 4,10 12,26 5,9 10,18 15,27 8,12 14,25 20,37 9,14 18,26 29,38 10,12 11,13 21,31 7,11 10,15 12,23 3,13 7,29 8,32 1,18 -2,36 -7,53 -1,3 -2,6 -2,9 1,-4 5,-8 7,-12 3,-3 5,-9 6,-13 2,-4 5,-9 6,-14 5,-13 7,-26 5,-39l0 0zm-223 -538c-2,11 -4,21 -6,32 1,-14 3,-28 6,-41 0,-1 1,-2 1,-3 0,0 0,1 0,1 0,0 0,0 0,0 -1,4 -1,8 -2,11l0 0z"/>
   <g>
    <path class="fil8" d="M5204 4448c0,0 0,0 0,0 0,0 0,0 0,0 0,0 0,0 0,0l0 0z"/>
    <path class="fil8" d="M5285 4442c-1,-1 -3,-2 -4,-4 -1,-2 -6,-5 -6,-6 -4,-3 -7,-6 -12,-7 -2,0 -5,-1 -7,-1 1,1 3,1 4,2 4,1 7,5 10,8 3,4 4,5 6,9 1,1 3,4 3,5 1,4 3,7 3,11 0,2 1,11 -1,15 -2,11 -4,11 -8,21 -2,5 -3,7 -9,12 -2,1 -8,5 -10,6 -1,1 -2,1 -4,2 -1,0 -1,1 -2,1 -6,2 -7,0 -21,-2 -9,0 -7,-1 -21,-13 -2,-2 -2,-1 -5,-8 -3,-6 -3,-4 -3,-8 0,0 0,0 0,-1 -1,-11 -2,-20 0,-26 1,-7 2,-9 4,-13 0,0 0,0 0,0 0,0 0,0 0,0 0,0 0,0 0,0 0,0 0,0 0,0 2,-4 3,-7 5,-9 4,-4 5,-8 9,-11 6,-5 14,-5 22,-7 -13,-2 -24,-3 -34,7 -18,15 -24,35 -23,59 0,8 4,14 7,20 3,5 7,10 11,14 4,4 7,8 12,10 5,3 10,4 15,4 0,0 0,0 1,0 8,2 17,4 25,1 12,-4 23,-12 31,-22 5,-6 6,-13 8,-21 6,-17 4,-37 -7,-51l0 0z"/>
   </g>
   <path class="fil8" d="M5260 4467c-3,-4 -8,-6 -13,-8 -4,-1 -9,-1 -13,0 1,0 1,0 2,0 7,0 13,5 18,10 1,3 1,7 1,10 0,4 -9,11 -15,11 -5,0 -13,-2 -16,-5 -2,-2 -3,-8 -3,-12 2,-7 7,-12 12,-16 -8,3 -16,8 -18,16 -2,8 -1,18 6,22 4,3 9,4 14,5 6,1 12,0 17,-3 12,-6 16,-19 9,-31l0 0z"/>
   <path class="fil8" d="M5068 4457c-1,-8 -2,-17 -6,-25 -4,-14 -17,-18 -32,-21 -9,-1 -19,1 -27,2 3,0 13,1 18,2 8,1 15,5 21,9 5,3 7,4 8,11 2,8 1,17 2,29 0,7 -1,8 -4,18 -5,9 -5,9 -9,13 -5,5 -5,5 -14,11 -1,0 -1,0 -2,0 -5,0 -11,0 -16,-1 -6,0 -11,-1 -17,-1 -8,-1 -5,0 -16,-3 -1,0 -1,-1 -2,-1 -2,-2 -4,-3 -6,-5 0,0 0,-1 -1,-1 0,0 -1,-1 -1,-1 -7,-12 -3,-3 -6,-17 1,-1 -4,-18 -3,-28 0,4 0,1 0,-2 0,-1 1,-5 2,-7 1,-3 2,-4 4,-10 2,-6 2,-6 7,-11 6,-5 9,-8 17,-12 6,-2 13,-2 19,-3 -7,-1 -14,-2 -21,-2 -5,1 -10,3 -14,5 -8,4 -15,8 -20,16 -7,8 -11,18 -12,28 -1,8 0,16 0,24 0,6 0,12 1,18 4,12 11,24 22,31 7,4 15,5 23,6 8,1 17,1 25,1 8,0 17,0 25,-4 16,-10 30,-24 33,-43 2,-10 2,-20 0,-30l0 0z"/>
   <path class="fil8" d="M5023 4444c-3,-3 -6,-3 -10,-3 -4,0 -8,0 -12,0 -3,0 -6,1 -9,2 1,-1 2,-2 3,-3 -15,6 -20,26 -8,36 10,6 28,6 36,-5 4,-4 5,-10 5,-16 0,-5 -1,-10 -5,-13l0 0zm-30 26c-7,-5 -7,-16 -2,-24 0,0 0,0 0,0 8,-1 15,3 24,4 0,0 1,0 1,0 0,0 0,0 0,0 1,1 1,2 1,2 0,0 0,0 0,0 0,1 0,2 0,2 -1,4 -1,7 -2,9 -5,6 -15,7 -22,5l0 0z"/>
   <path class="fil8" d="M4067 2821c-6,-5 -9,-12 -13,-19 -4,-7 -9,-14 -14,-21 -11,-13 -16,-26 -24,-45 -6,-13 -14,-25 -20,-39 -6,-14 -11,-28 -19,-42 -3,-7 -8,-14 -13,-20 -5,-8 -11,-17 -17,-24 -7,-8 -14,-14 -23,-21 0,0 -1,0 -2,-2 -11,-9 -24,-16 -38,-21 -10,-2 -20,-7 -30,-9 -15,-3 -29,-8 -43,-12 -26,-10 -50,-21 -81,-37 12,12 26,23 40,33 -5,-3 -10,-6 -15,-9 -11,-7 -19,-13 -29,-20 4,-10 7,-21 9,-31 2,-13 3,-26 -1,-38 -5,-16 -18,-28 -32,-35 -9,-5 -18,-9 -28,-12 2,0 3,-1 5,-1 4,0 -5,-2 -7,-2 -14,-3 -28,-2 -43,-2 -13,-1 -26,-2 -40,-3 -8,-2 -16,-5 -24,-8 -2,-1 -5,-2 -6,-3 -1,-1 -5,-3 -6,-4 -10,-9 -13,-15 -19,-23 -11,-15 -20,-32 -29,-49 3,22 8,45 18,65 5,10 11,21 20,28 17,14 41,18 63,16 15,-1 24,-2 42,-8 8,-2 16,-4 24,-6 13,9 26,19 37,31 5,7 8,16 8,21 0,12 0,13 -5,27 -5,17 -13,30 -20,39 -8,9 -16,20 -26,28 -9,6 -17,14 -25,21 -13,9 -26,18 -38,27 1,-1 5,-4 2,-2 -3,2 -7,4 -10,6 6,-7 12,-14 17,-22 1,-2 2,-4 3,-6 6,-6 12,-11 17,-18 0,1 -1,1 -1,2 3,-3 5,-6 6,-9 3,-5 4,-10 6,-15 2,-8 6,-16 6,-24 0,-1 -1,-2 -1,-3 0,0 0,-1 0,-2 -1,-1 -1,-2 -1,-3 -1,-3 -4,-4 -5,-7 -3,-3 -6,-7 -10,-10 -1,-1 -3,-3 -5,-4 2,2 3,4 4,6 3,4 5,8 7,12 1,3 3,5 3,7 0,0 0,1 0,1 0,1 0,2 0,3 0,0 0,0 0,0 -3,8 -11,18 -16,28 0,0 0,0 0,0 -1,1 -2,3 -3,4 0,0 0,0 -1,1 -1,1 -1,1 -1,1 -1,1 -1,1 -2,2 -2,2 -18,12 -26,20 -12,10 -24,21 -36,31 -1,1 -3,2 -5,3 -8,5 -15,12 -23,19 -10,6 -20,12 -30,19 -15,8 -28,18 -42,28 -23,12 -46,25 -68,38 -14,8 -27,18 -41,25 -12,8 -26,13 -39,19 -18,10 -36,22 -56,29 1,-1 3,-1 4,-2 -5,2 -10,4 -16,5 -25,7 -49,18 -74,26 -21,5 -41,12 -61,18 -12,3 -23,5 -35,7 -8,1 -15,2 -23,2 -11,0 -23,-1 -34,-1 -30,1 -63,0 -80,-3 -22,-5 -32,-8 -45,-15 -15,-7 -30,-16 -44,-26 -10,-8 -12,-9 -16,-12 -9,-8 -18,-16 -27,-23 -11,-10 -24,-16 -36,-24 -2,-2 -6,-5 -9,-7 -2,-1 -3,-3 -5,-4 -11,-10 -21,-20 -31,-31 -20,-23 -31,-38 -50,-69 -16,-28 -19,-32 -26,-55 -2,-10 -5,-33 -5,-39 2,-19 7,-35 18,-46 -7,13 -12,27 -13,42 -2,10 -3,21 0,31 3,15 14,25 22,38 10,16 20,33 35,44 9,7 18,13 28,19 10,7 20,13 31,17 21,10 44,18 67,21 7,1 14,0 21,-1 15,0 29,0 44,1 16,0 31,-1 47,-3 12,-1 23,-1 35,-3 11,-2 22,-5 34,-7 28,-4 67,-12 103,-22 4,-1 8,-2 12,-4 16,-2 11,-2 28,-3 10,0 19,-2 29,-4 0,0 1,0 1,0 11,-1 22,-1 33,-2 12,-2 23,-4 35,-6 21,-5 42,-10 62,-15 10,-2 19,-4 29,-8 9,-3 18,-5 27,-10 3,-1 6,-2 9,-3 8,-2 16,-5 24,-8 10,-3 20,-7 29,-11 11,-5 15,-5 33,-10 7,-2 15,-3 22,-5 18,-5 34,-16 49,-27 6,-6 12,-13 18,-19 6,-7 13,-15 17,-23 2,-7 2,-14 3,-21 -3,7 -5,15 -10,20 -10,10 -30,23 -37,28 -19,9 -25,13 -45,17 -9,2 -5,1 -18,2 -15,2 -9,1 -21,3 -9,1 -17,3 -25,7 -8,3 -17,6 -26,9 -10,4 -21,7 -32,11 -14,6 -18,7 -38,13 -32,7 -64,17 -97,22 -15,3 -24,2 -46,5 -20,3 -17,3 -37,5 -17,2 -27,3 -45,5 13,-7 8,-4 19,-8 7,-2 14,-4 19,-9 12,-10 20,-23 23,-38 2,-7 2,-14 -1,-20 -5,-9 -15,-12 -24,-15 -1,0 -1,-1 -2,-1 -1,-2 -1,-4 -1,-6 0,-1 0,-1 0,-1 1,-14 -1,-6 4,-20 11,-31 -1,-40 -15,-50 -11,-9 -23,-16 -35,-23 -6,-4 -12,-7 -18,-11 -1,-1 -8,-7 -10,-9 -5,-6 -12,-11 -18,-15 -6,-5 -12,-10 -18,-15 0,0 -1,-1 -1,-1 -6,-8 -9,-18 -14,-27 0,0 0,0 0,0 -2,-6 -4,-12 -7,-17 -7,-13 -8,-11 -10,-19 0,0 0,-1 0,-1 0,0 0,0 0,0 -1,-2 -1,-5 -2,-7 -2,-9 -5,-18 -7,-27 0,-9 -2,-17 -4,-26 0,-10 0,-1 1,-13 2,-16 1,-12 3,-25 1,-5 2,-18 4,-32 0,0 0,-1 0,-1 5,-22 11,-43 20,-63 6,-15 5,-13 12,-28 5,-12 10,-23 17,-33 7,-10 3,-5 10,-14 5,-6 10,-13 16,-19 9,-9 19,-17 28,-26 14,-11 17,-14 30,-19 16,-7 56,-14 51,-37 -9,-25 -46,-27 -68,-35 -10,-3 -20,-2 -29,-2 -1,0 -3,0 -5,0 0,0 0,0 0,0 -2,0 -9,-1 -10,-1 -4,-1 -7,-1 -11,-1 -9,1 -17,4 -25,6 -7,1 -14,2 -21,5 -13,5 -26,11 -38,19 -6,4 -11,9 -17,14 -1,1 -2,1 -2,2 1,-1 2,-1 2,-2 -5,4 -9,9 -14,13 -16,14 -33,27 -47,43 -1,1 -2,2 -2,2 0,0 0,0 0,0 -10,7 -17,19 -18,31 -1,2 -2,5 -4,7 1,-1 2,-3 3,-4 0,5 0,10 1,16 0,1 0,3 0,4 -1,2 -1,5 -1,7 0,3 2,5 3,7 0,8 -1,23 0,33 2,16 3,14 2,27 -2,26 -6,45 -8,61 -3,17 -3,24 -5,32 -4,12 -8,24 -13,35 -4,9 -10,17 -14,25 -8,16 -18,31 -28,46 -5,6 -10,13 -14,20 -6,7 -9,15 -13,24 -13,28 -14,46 -15,70 -1,10 -1,21 0,31 1,8 2,15 4,23 -23,-16 -38,-24 -46,-65 -2,26 4,50 24,69 12,13 24,26 36,40 9,8 16,24 30,39 19,18 42,33 65,46 10,4 20,8 30,12 5,2 11,5 17,6 5,1 10,3 15,4 1,1 2,1 4,2 2,1 4,1 6,2 0,0 0,0 0,0 -19,2 -39,4 -59,3 -12,0 -25,-1 -37,0 -18,2 -14,2 -31,-2 -25,-7 -29,-9 -54,-21 -19,-12 -36,-23 -45,-31 -14,-15 -18,-22 -25,-30 -8,-11 -17,-19 -19,-23 -5,-9 -4,-10 -5,-27 -1,-16 1,-23 5,-41 2,-8 7,-13 13,-19 5,-6 11,-11 18,-16 -12,5 -25,12 -35,22 -17,7 -32,21 -38,39 -3,6 -6,13 -7,20 -1,7 -1,14 -2,21 -3,31 9,61 23,88 18,34 42,63 68,91 19,19 27,25 44,37 14,9 22,12 27,17 9,8 19,16 28,24 13,10 26,19 39,28 14,8 28,16 44,21 21,7 43,11 65,13 8,1 17,1 25,0 9,1 18,0 26,0 14,0 28,1 42,1 21,-2 42,-6 63,-10 13,-4 26,-8 39,-12 20,-5 39,-11 58,-19 18,-7 36,-11 53,-18 11,-5 23,-10 34,-16 12,-8 25,-15 38,-21 31,-13 58,-34 87,-50 11,-7 22,-12 33,-18 -7,5 -13,10 -18,14 -19,12 -41,20 -60,33 -16,10 -19,14 -29,21 1,-1 2,-2 0,0 -9,6 -18,11 -28,16 -19,9 -38,15 -55,22 -11,4 -22,7 -33,12 -25,10 -51,19 -77,27 -11,4 -23,5 -35,7 -9,2 -18,5 -27,8 -9,2 -18,4 -27,6 -8,1 -15,3 -23,4 -9,0 -18,2 -27,4 -10,2 -20,6 -30,8 -21,4 -21,3 -44,6 -14,3 -28,8 -42,11 -23,4 -28,4 -54,9 -19,4 -37,10 -57,13 -16,3 -16,2 -38,4 -26,0 -31,0 -55,-9 -7,-3 -14,-7 -20,-11 -11,-8 -31,-27 -38,-39 -12,-20 -12,-26 -20,-51 -3,-10 -7,-20 -10,-30 -3,-13 -7,-26 -10,-38 -1,-7 -5,-33 -5,-49 0,-25 -4,-50 -3,-76 -1,-18 7,-33 14,-57 3,-10 6,-20 9,-30 6,-17 12,-31 20,-47 -12,13 -22,28 -32,43 -5,9 -9,18 -14,27 -9,19 -21,37 -24,58 -2,12 -3,24 -4,37 0,12 1,24 1,36 0,16 2,31 4,47 1,13 3,26 8,39 3,16 9,31 14,46 4,17 9,34 17,49 10,21 26,38 43,53 10,8 20,17 32,22 38,19 82,17 123,10 35,-7 67,-17 91,-19 3,0 7,-1 10,-2 23,39 64,84 84,111 14,18 24,39 35,59 10,17 24,31 38,46 1,1 1,1 2,2 5,7 10,14 15,22 12,21 24,42 39,60 19,25 41,48 53,65 11,16 19,33 30,49 15,23 29,47 41,71 18,28 31,59 46,89 15,30 31,61 46,91 8,18 14,37 20,55 7,16 5,12 11,27 9,22 12,45 21,67 7,17 7,14 13,29 0,0 0,0 0,0 0,0 0,1 0,1 1,2 1,4 2,5 0,1 1,2 1,2 0,2 1,3 1,4 0,3 1,5 3,7 3,13 6,26 9,40 1,11 0,21 2,32 1,22 8,44 14,65 4,20 7,40 13,59 1,6 3,11 4,17 1,-19 -1,-37 0,-56 0,-10 0,-20 0,-30 -2,-10 -2,-20 -3,-31 -1,-14 0,-28 0,-42 3,-16 -1,-32 -4,-48 -2,-7 -2,-17 -6,-24 0,-2 -1,-4 -2,-5 0,-1 -1,-2 -1,-3 0,-2 -1,-4 -2,-5 0,0 0,0 0,0 0,-1 -1,-2 -1,-3 0,-1 0,-1 -1,-2 -6,-16 -11,-24 -14,-31 -5,-12 -7,-26 -11,-38 -5,-16 -11,-31 -17,-46 -7,-20 -13,-39 -22,-58 -19,-41 -41,-81 -61,-122 -10,-22 -21,-44 -35,-65 -11,-22 -24,-43 -37,-64 -11,-18 -21,-37 -33,-55 -12,-17 -26,-32 -39,-48 -17,-20 -21,-26 -34,-45 -11,-18 -21,-37 -33,-54 -10,-14 -23,-25 -33,-38 -11,-14 -18,-31 -28,-46 -34,-48 -85,-79 -126,-119 17,-3 33,-8 49,-12 7,-2 16,-2 33,-5 13,-1 26,-5 39,-9 10,10 20,21 30,31 14,15 29,28 43,44 10,10 23,35 34,56 16,25 32,42 43,58 10,13 19,26 29,38 12,16 23,33 35,48 17,21 26,27 37,45 15,22 25,48 38,71 14,20 19,24 35,48 21,34 39,70 55,106 11,24 21,48 32,72 13,26 21,41 28,60 5,13 9,27 13,41 3,12 5,25 10,37 18,46 29,94 47,140 9,23 16,37 25,60 6,14 9,16 12,31 5,18 5,37 10,55 0,2 0,3 0,5 0,-1 -1,-2 -1,-3 0,4 1,6 1,7 0,0 0,0 0,0l0 0c2,6 5,-11 4,-17 1,-19 4,-37 2,-56 -1,-10 -3,-19 -6,-28 -2,-8 -4,-15 -6,-23 -12,-44 -27,-88 -40,-132 -7,-20 -14,-40 -21,-60 -6,-28 -13,-55 -25,-81 -11,-25 -24,-48 -35,-73 -18,-42 -37,-84 -59,-124 -10,-18 -20,-36 -33,-53 -17,-23 -15,-16 -27,-39 -11,-23 -22,-46 -37,-67 -11,-16 -25,-29 -37,-44 -1,-1 -1,-1 -2,-2 0,0 0,0 -1,-1 -9,-13 -18,-26 -28,-39 -15,-19 -20,-26 -31,-40 -12,-17 -35,-45 -39,-51 -11,-16 -21,-33 -34,-48 -17,-19 -38,-32 -58,-46 -14,-9 -28,-18 -42,-26 2,-1 5,-1 7,-1 0,0 1,0 1,0 0,0 0,0 1,0 17,-1 33,-4 50,-8 6,-1 11,-3 16,-4 14,-1 27,-2 41,-1 5,1 37,9 53,11 15,2 28,7 43,8 16,3 32,-1 48,-1 13,0 25,1 38,1 14,-1 28,-4 41,-6 26,-5 48,-21 73,-31 11,-4 21,-8 31,-12 10,-4 21,-9 31,-13 14,-6 29,-12 42,-20 26,-16 47,-39 68,-61 20,-21 30,-36 43,-53 13,-19 28,-38 36,-60 6,-16 10,-21 17,-43 3,-8 3,-17 6,-24 3,-6 4,-13 5,-19 0,-2 -2,-4 -2,-6 0,1 0,3 0,4 0,3 -2,5 -2,7 -2,6 -6,10 -9,15 -5,12 -11,24 -19,34 -8,11 -14,22 -22,33 0,0 -1,1 -1,1 -6,7 -12,15 -18,22 -24,28 -48,56 -74,82 -18,19 -24,25 -41,36 -18,12 -30,16 -42,21 -23,11 -35,14 -64,25 -21,9 -41,22 -52,25 -11,4 -23,6 -34,8 -8,2 -25,2 -44,1 -16,-1 -33,2 -49,1 -9,0 -31,-7 -53,-7 -3,0 -6,0 -9,-1 23,-8 46,-16 68,-25 -1,1 -3,1 -4,2 14,-5 28,-9 42,-15 23,-8 46,-17 66,-30 22,-13 17,-14 40,-28 15,-9 31,-16 47,-25 13,-8 20,-14 25,-18 8,-5 26,-19 42,-35 6,-5 11,-11 17,-17 22,-14 45,-28 67,-42 8,-6 18,-10 26,-15 17,-12 35,-23 50,-37 6,-7 15,-12 21,-18 8,-8 14,-17 21,-26 4,-6 8,-12 11,-18 13,17 28,33 45,46 8,6 17,11 26,17 8,6 28,25 33,36 8,14 17,30 17,33 4,11 6,22 9,34 3,10 7,19 9,29 7,28 18,56 22,84 0,1 2,14 2,17 3,15 3,20 6,39 2,17 2,34 4,51 2,19 4,37 8,56 2,24 5,48 8,73 4,31 5,62 10,93 13,75 30,150 48,225 3,17 9,33 11,50 1,7 2,13 3,19 2,14 7,28 11,42 6,23 13,45 22,67 4,17 10,34 13,52 2,11 6,22 7,33 1,12 0,24 1,36 0,1 0,2 0,3 0,-1 0,-2 1,-3 2,-11 6,-21 7,-32 2,-10 2,-21 1,-31 0,-10 1,-21 -1,-31 -2,-11 -2,-22 -3,-32 -2,-10 -5,-20 -7,-31 -4,-20 -8,-41 -15,-60 -8,-29 -6,-45 -16,-79 -18,-80 -38,-160 -51,-240 -3,-18 -6,-62 -10,-95 -4,-28 -5,-57 -11,-85 -2,-13 -4,-30 -6,-53 0,-10 -1,-19 -2,-29 -3,-18 -3,-22 -6,-45 -1,-12 -3,-24 -5,-36 -3,-15 -8,-30 -13,-45 -4,-17 -10,-34 -15,-51 -4,-16 -7,-32 -14,-46 -8,-14 -17,-29 -29,-41 -2,-2 -4,-4 -6,-5 4,2 9,3 13,5 7,3 14,6 21,9 1,0 2,1 3,1 0,0 1,0 1,1 19,9 42,30 49,40 6,9 12,18 18,27 9,16 17,34 25,50 5,9 12,17 18,25 5,8 10,17 15,25 8,14 21,24 32,35 7,6 12,14 19,20 7,6 15,10 23,15 3,2 5,3 8,5 -6,-7 -12,-13 -19,-19l0 0z"/>
   <path class="fil8" d="M2346 2624c-1,-1 -1,-3 -2,-4 0,-1 -1,-3 -2,-4 -3,-4 -7,-8 -12,-7 -11,-3 -24,5 -26,22 -2,15 -1,33 9,46 8,9 24,10 30,-1 2,-4 3,-8 3,-12 7,-11 3,-27 -1,-38l0 0z"/>
   <path class="fil8" d="M4408 2408c0,-1 0,-1 0,-1 1,-8 -4,-17 -12,-17 -6,-7 -17,-11 -24,-4 -5,6 -5,14 -4,22 -1,4 -1,8 1,11 -2,11 0,23 11,27 10,2 17,-3 21,-11 7,-6 8,-17 7,-26l0 0z"/>
   <path class="fil8" d="M3681 2260c-3,-10 -5,-20 -10,-30 -6,-16 -19,-27 -30,-39 -16,-15 -38,-24 -60,-25 -2,-2 -5,-3 -7,-5 -10,-7 -21,-13 -33,-17 -9,-3 -18,-6 -27,-6 -24,1 -48,11 -64,29 -9,9 -14,20 -21,31 -7,9 -24,22 -37,28 18,-2 37,-8 51,-20 8,-8 16,-18 25,-25 1,-1 7,-5 8,-6 2,-1 9,-5 10,-5 8,-3 13,-6 27,-9 10,-1 15,0 19,1 7,1 14,2 21,4 3,1 6,1 9,2 -6,3 -11,8 -16,13 -7,7 -14,14 -20,22 13,-8 38,-20 44,-21 3,0 16,3 25,6 2,1 18,9 28,14 15,12 23,16 35,28 7,8 13,18 21,28 1,2 3,3 4,5 0,-2 -1,-3 -2,-4l0 0z"/>
   <path class="fil8" d="M3493 2421c-12,-9 -25,-20 -31,-28 -9,-13 -7,-15 -13,-28 -5,-16 -8,-26 -8,-29 -2,-15 -1,-12 -5,-34 0,-2 -2,-14 -5,-23 -2,-8 -7,-15 -13,-21 -5,-6 -11,-12 -17,-18 4,8 6,14 10,22 1,3 4,10 5,16 0,3 1,14 1,20 -1,9 0,18 0,27 0,10 0,20 2,30 5,16 12,32 22,45 15,17 39,26 60,32 4,1 7,2 11,3 -5,-5 -17,-12 -19,-14l0 0z"/>
   <path class="fil8" d="M3663 2283c-10,-3 -20,-5 -30,-8 -14,-5 -29,-10 -44,-13 -16,-6 -32,-13 -51,-19 14,12 29,25 45,34 16,7 33,11 50,13 12,1 25,0 37,-2 2,0 5,-1 7,-1 -5,-1 -9,-2 -14,-3l0 0z"/>
   <path class="fil8" d="M3655 2320c-13,-1 -26,0 -38,-1 -1,0 -2,0 -3,0 -12,-2 -23,-6 -34,-9 -12,-4 -34,-19 -52,-26 17,17 32,39 57,46 10,3 20,6 31,5 16,-1 31,-6 46,-11 2,-1 5,-2 7,-2 -4,-2 -9,-1 -14,-1l0 0z"/>
   <path class="fil8" d="M3506 2198c-5,24 -6,41 -11,63 -2,6 -2,5 -4,10 -4,10 -4,13 -10,23 -2,3 -3,5 -5,8 2,-2 5,-3 7,-5 8,-5 15,-16 21,-25 12,-22 7,-49 2,-73l0 0z"/>
   <path class="fil8" d="M3424 2165c0,-5 -3,-8 -6,-11 -7,-9 -18,-13 -29,-17 -8,-4 -17,-5 -26,-8 -6,-2 -13,-3 -19,-4 -5,-1 -9,-2 -14,-3 -9,-2 -26,-2 -44,-3 -12,0 -24,0 -35,1 -4,0 -9,1 -13,1 0,-5 0,-10 -1,-15 -1,-8 -1,-15 0,-23 1,1 3,2 5,2 11,2 24,2 34,-5 5,-3 6,-9 6,-15 4,-9 -1,-18 -14,-23 -5,-2 -11,-3 -16,-3 6,-12 14,-24 22,-36 -30,18 -56,51 -48,87 2,11 8,20 11,27 0,1 1,2 1,3 -2,0 -4,-1 -5,-2 -1,0 -2,-1 -3,-1 0,0 0,0 0,0 -1,-1 -4,-2 -5,-3 -2,-1 -3,-3 -5,-5 -6,-8 -4,-3 -10,-14 -5,-12 -9,-30 -9,-34 -1,-8 4,-24 8,-35 6,-14 15,-26 24,-38 -13,10 -26,20 -36,33 -8,12 -15,26 -17,40 -1,9 0,17 1,25 1,8 2,15 5,23 5,13 13,25 25,33 7,5 14,8 22,10 6,1 13,1 20,0 7,0 14,-1 21,-2 11,-1 22,-1 34,-2 7,-1 9,-1 22,-1 7,0 14,1 21,1 11,0 10,1 21,2 6,0 12,0 19,1 5,1 14,1 22,5 5,3 12,6 14,12 0,0 0,1 1,1 0,0 0,0 0,-1l0 0zm-166 -103c-2,2 -4,3 -6,4 0,-2 1,-3 1,-6 2,1 3,1 4,2l0 0z"/>
   <path class="fil8" d="M3202 2247c-4,-3 -9,-4 -14,-4 -1,-1 -3,-1 -5,-2 -4,-2 -9,-3 -14,-3 3,-5 6,-8 12,-16 9,-12 17,-24 24,-37 -12,9 -23,18 -35,28 -16,12 -30,26 -35,46 -4,11 -6,22 -4,33 2,9 6,18 9,27 5,12 6,15 14,32 5,10 11,19 17,28 1,2 3,4 4,6 0,-1 -1,-3 -1,-4 -3,-11 -5,-22 -8,-33 -1,-5 -2,-9 -3,-14 0,-1 0,-1 0,-1 -1,-11 -4,-21 -6,-30 1,0 2,0 3,0 12,1 23,-1 34,-6 9,-6 15,-16 15,-27 -1,-8 -2,-18 -8,-24l0 0zm-27 25c0,0 0,0 0,0 0,0 0,0 0,0 0,0 -1,1 -2,1 0,-1 -1,-1 -1,-2 1,0 2,0 3,0l0 0zm7 -2c0,1 0,1 0,2 0,0 0,1 0,1 0,0 0,0 0,0 -1,1 -2,1 -4,2 0,0 -1,0 -2,0 -1,0 -1,0 -1,-1 2,0 4,-2 2,-3 -1,-1 -3,-1 -5,-1 -1,-2 1,-5 4,-4 2,1 2,4 2,6 0,0 0,1 0,1 0,0 0,0 0,0 0,0 0,0 0,0 0,0 1,0 2,0 0,0 0,0 0,0 0,0 0,0 0,0 0,0 0,0 1,-1 1,-1 2,-1 2,-2 0,0 -1,-1 -1,0 0,0 0,-1 0,-1 0,-2 -1,-3 -1,-4 1,0 2,0 2,1 0,0 0,0 0,0 0,0 0,0 0,0 0,0 0,0 0,0 0,1 0,1 0,2 0,0 0,1 0,1 0,1 0,1 0,1l0 0z"/>
   <path class="fil8" d="M3116 4084c-9,-3 -17,-6 -25,-12 -3,-2 -18,-15 -26,-23 -5,-4 -10,-9 -14,-14 0,0 0,0 0,0 -4,-5 -6,-9 -11,-20 -3,-10 -5,-21 -8,-32 -1,-16 -1,-32 -1,-48 0,-10 0,-19 0,-29 0,-7 -1,-13 -2,-20 0,-3 -1,-6 -1,-10 -2,-16 -1,-10 -4,-27 -7,-23 -12,-32 -19,-48 -6,-14 -5,-10 -10,-25 -6,-13 -14,-37 -13,-43 0,-3 -1,-6 -1,-9 0,-5 0,-11 0,-16 -1,-15 -3,-29 -4,-43 0,-12 1,-24 1,-36 0,-18 1,-35 -1,-53 -1,-9 -4,-18 -7,-27 -5,-17 -10,-34 -16,-51 -11,-29 -18,-44 -34,-76 -9,-18 -21,-34 -32,-51 -23,-30 -32,-43 -58,-74 -18,-22 -38,-43 -57,-64 -31,-30 -66,-56 -95,-88 -36,-45 -58,-62 -70,-104 -4,-11 -5,-24 -8,-36 -2,-10 0,-6 -3,-23 -4,-19 -4,-24 -6,-48 -4,-52 -9,-103 -14,-155 -10,59 -16,119 -16,180 0,9 1,15 2,20 -9,-4 -18,-6 -28,-8 11,4 21,10 29,18 0,2 0,3 0,5 1,11 3,22 5,32 -8,22 -17,51 -22,60 -18,36 -40,70 -60,105 -6,13 -13,25 -19,38 -7,16 -5,12 -11,27 -4,8 -12,29 -17,49 -5,21 -13,40 -19,61 -6,21 -10,42 -13,63 -3,16 -7,33 -13,48 -5,11 -6,13 -15,30 0,1 -1,1 -1,2 -1,1 -1,1 -2,2 0,0 -1,0 -1,1 -1,0 -2,1 -3,1 0,0 -1,0 -1,0 -1,0 -2,0 -2,0 -7,-1 -8,-2 -10,-4 -3,-2 -9,-7 -18,-17 -2,-3 -4,-7 -6,-11 -9,-24 6,-62 17,-103 5,-24 10,-47 15,-71 3,-20 2,-20 5,-37 2,-12 7,-24 11,-36 2,-9 5,-17 7,-26 2,-7 3,-14 4,-20 2,-8 5,-15 7,-23 3,-7 5,-13 6,-20 0,0 0,0 0,0 0,0 0,0 0,1 -6,12 -16,22 -22,35 -6,10 -6,13 -10,22 -5,8 -9,16 -12,24 -3,6 -6,12 -9,18 -9,17 -14,36 -18,55 -7,22 -12,44 -17,66 -7,32 -20,62 -22,95 -1,16 2,32 10,46 11,17 28,35 48,41 6,8 11,16 16,24 12,19 22,39 34,59 15,25 31,49 44,75 8,15 17,30 25,45 5,10 9,20 15,30 9,12 29,36 37,47 13,21 22,28 32,42 9,10 17,21 26,30 12,10 24,19 37,28 13,9 23,20 43,35 19,12 21,10 37,18 14,7 28,15 43,20 17,5 34,11 51,13 12,1 24,0 36,0 20,0 39,-5 57,-13 15,-5 29,-12 43,-19 1,0 8,-3 10,-4 7,-2 13,-6 20,-8 11,-3 23,1 34,2 -2,-1 -5,-2 -7,-3 -8,-3 -16,-7 -24,-8 -12,0 -24,4 -35,5 -10,2 -20,6 -31,8 -21,4 -30,8 -45,9 -11,1 -23,0 -34,0 -7,0 -14,0 -21,-1 0,0 -1,0 -1,0 -16,-4 -32,-8 -48,-14 -11,-5 -21,-10 -31,-15 -20,-10 -21,-7 -39,-20 -1,-1 -29,-25 -42,-34 -17,-13 -17,-12 -30,-23 -8,-9 -16,-18 -24,-28 -14,-19 -19,-22 -30,-40 -10,-13 -22,-27 -28,-35 24,-18 45,-39 65,-61 19,-22 32,-47 46,-72 17,-30 24,-63 36,-95 7,-20 12,-41 18,-62 5,-20 11,-40 13,-61 2,-15 2,-30 1,-44 0,-14 1,-27 0,-41 -1,-15 -1,-29 -2,-44 0,-4 0,-7 0,-11 0,-3 -1,-6 -1,-9 0,-3 0,-5 1,-8 -1,3 -2,5 -3,8 -1,3 -1,6 -2,9 -1,3 -2,7 -3,10 -1,9 -2,11 -3,19 -5,25 -4,32 -10,58 -4,24 -3,29 -8,51 -9,33 -19,65 -28,98 -4,15 -10,30 -15,45 -10,32 -14,45 -28,70 -13,29 -27,57 -45,83 -12,17 -24,34 -38,51 -1,-1 -1,-2 -1,-2 -6,-10 -10,-21 -16,-31 -12,-22 -24,-43 -36,-65 -12,-19 -24,-39 -36,-58 32,-36 63,-74 92,-112 17,-26 31,-54 46,-82 15,-25 19,-53 29,-80 6,-21 11,-41 13,-63 1,-25 5,-50 5,-75 1,-12 -1,-24 1,-37 0,-3 1,-6 1,-9 -1,1 -1,3 -2,4 -8,18 -10,38 -16,56 -4,15 -9,30 -12,45 -3,16 -9,31 -14,46 -5,16 -12,32 -17,48 -5,17 -9,32 -13,38 -17,30 -31,62 -46,93 -24,42 -47,84 -68,127 -12,-18 -25,-36 -38,-53 -3,-3 -6,-7 -9,-10 3,-1 6,-2 8,-4 13,-9 19,-24 26,-38 14,-28 18,-60 24,-90 5,-33 18,-63 27,-94 7,-26 10,-32 18,-52 -1,1 -1,3 -2,4 9,-22 10,-23 21,-44 12,-27 30,-51 43,-77 9,-17 17,-34 23,-52 3,-9 5,-19 6,-28 2,4 3,8 5,12 11,21 15,23 26,38 8,10 17,20 25,30 9,11 18,22 28,32 26,26 56,49 83,75 50,52 82,94 111,133 10,16 21,31 30,48 18,35 21,44 33,73 9,24 16,48 21,73 1,16 2,33 3,49 1,12 2,25 4,37 4,16 9,31 12,47 -1,10 -2,20 -1,31 2,15 5,29 9,44 0,0 0,1 0,1 0,0 0,0 0,-1 1,3 2,6 2,9 4,11 7,23 11,34 3,9 7,19 8,28 0,1 0,1 0,1 1,11 1,6 2,22 2,17 3,11 2,28 0,25 -1,51 3,75 4,14 7,29 15,42 8,14 20,26 34,34 10,7 19,13 30,18 11,6 23,8 35,9 13,1 27,1 40,1 -13,-3 -27,-7 -40,-11l0 0z"/>
   <path class="fil8" d="M4446 2960c-7,-20 -19,-37 -29,-56 -2,-6 -4,-13 -7,-19 -6,-12 -7,-15 -14,-32 -5,-12 -7,-17 -10,-25 -2,-6 -4,-13 -7,-19 -2,-5 -5,-10 -9,-15 -1,-3 -2,-6 -3,-8 0,1 0,3 1,4 -6,-8 -12,-15 -19,-22 -4,-5 -7,-10 -12,-14 0,0 -1,-1 -1,-1 0,0 0,0 1,0 0,0 -1,0 -1,-1 0,0 0,0 0,0 1,1 2,2 2,4 3,5 4,9 7,14 8,16 15,27 19,45 2,10 4,26 8,42 2,10 4,20 7,30 2,6 5,11 6,17 3,14 2,12 4,30 2,17 2,47 -5,72 -2,-4 -4,-8 -6,-12 -4,-7 -9,-14 -13,-21 -6,-11 -13,-21 -21,-30 -6,-8 -5,-6 -14,-19 -4,-6 -9,-11 -13,-16 -1,-2 -8,-11 -9,-14 -6,-9 -11,-19 -17,-29 -6,-9 -13,-19 -18,-29 -10,-16 -20,-32 -33,-46 -11,-12 -11,-13 -22,-30 -5,-8 -11,-16 -14,-25 -13,-26 -4,-46 35,-65 -75,14 -66,64 -36,118 6,11 13,20 20,30 8,12 15,25 23,38 5,10 12,18 17,27 6,12 13,23 20,34 5,9 12,17 19,24 6,9 13,18 20,27 5,6 17,26 28,43 5,10 10,21 19,29 11,10 26,13 36,1 10,-13 14,-28 16,-44 1,11 0,23 0,24 -2,13 -6,26 -9,38 -4,14 -7,29 -12,43 -7,16 -17,31 -26,46 -11,15 -23,30 -33,46 -10,16 -18,32 -26,49 -12,18 -21,38 -29,58 -11,24 -25,47 -36,71 -7,15 -15,29 -22,44 -5,12 -9,25 -14,38 -6,16 -10,33 -15,49 -6,17 -7,16 -13,32 -7,14 -13,28 -18,42 -3,10 -5,21 -7,31 -4,13 -9,32 -12,37 -2,6 -6,11 -10,16 -4,7 -9,14 -14,21 -6,10 -15,16 -23,25 -1,1 -2,3 -3,4 4,-3 7,-5 11,-7 6,-4 12,-6 17,-11 11,-9 20,-20 31,-29 8,-9 14,-20 19,-31 8,-14 12,-29 17,-44 0,0 0,0 0,0 15,-31 23,-43 34,-71 8,-22 12,-45 21,-67 8,-23 9,-25 21,-47 12,-24 22,-49 36,-72 12,-26 23,-52 38,-76 12,-24 25,-48 41,-69 17,-22 33,-46 44,-71 7,-15 9,-31 14,-47 11,-37 17,-72 3,-109l0 0z"/>
   <path class="fil8" d="M3739 2873c1,-17 2,-33 2,-50 0,-61 -3,-122 -10,-183 -13,78 -21,150 -25,232 0,21 -1,42 0,63 2,29 0,58 -2,87 -2,37 -3,75 -6,112 -3,29 -5,59 -9,88 -2,14 -5,28 -7,43 -3,24 -3,25 -7,46 -5,25 -11,49 -15,74 -2,16 -1,10 -3,28 -1,10 0,20 -2,30 -3,20 -4,25 -4,50 0,6 -1,13 -2,19 -11,56 -25,110 -35,166 -2,16 -3,31 -5,41 -3,18 -8,37 -4,56 0,1 0,2 0,3 0,-1 0,-2 1,-3 1,-8 2,-16 5,-24 8,-19 16,-38 20,-58 11,-35 24,-69 34,-104 3,-11 6,-23 8,-35 2,-11 5,-22 7,-33 3,-17 4,-34 4,-50 0,-1 0,-2 0,-3 2,-16 2,-13 4,-30 1,-10 0,-19 1,-29 1,-6 2,-11 2,-17 6,-39 17,-76 21,-115 3,-20 8,-40 10,-60 5,-39 9,-78 10,-118 1,-25 2,-51 3,-76 3,-31 4,-61 2,-92 -1,-19 1,-39 1,-58l0 0z"/>
   <path class="fil8" d="M3846 2991c-1,-22 -2,-44 -9,-65 -6,-22 -16,-43 -24,-65 -6,-16 -10,-33 -15,-49 -5,-20 -12,-40 -17,-60 -1,21 1,43 2,64 1,21 3,43 8,63 6,25 13,49 17,74 1,6 1,12 2,18 1,15 2,31 3,46 1,27 1,54 -1,82 -2,20 -5,37 -8,66 -3,21 -4,42 -6,62 -4,36 -9,70 -17,116 -5,24 -9,48 -8,72 -1,21 -1,42 -1,62 0,14 -2,28 -2,42 0,16 -2,32 -4,47 -2,14 -5,28 -6,43 -1,12 -2,23 -4,35 -3,18 -7,36 -9,54 -1,11 -2,22 -3,33 0,16 0,31 -1,47 -1,15 -8,38 -4,58 0,1 0,2 0,3 0,-1 0,-2 0,-2 1,-6 1,-12 3,-18 5,-13 10,-25 15,-38 4,-15 7,-30 9,-45 2,-8 4,-16 6,-24 3,-10 5,-19 7,-29 3,-11 6,-21 8,-32 4,-30 4,-40 8,-63 6,-32 7,-65 8,-98 0,-31 0,-62 1,-92 1,-17 2,-21 7,-43 3,-20 7,-40 10,-60 4,-28 5,-38 9,-69 2,-22 4,-43 7,-64 2,-21 2,-20 5,-42 3,-23 4,-46 4,-69 0,-19 -1,-38 -2,-57l0 0z"/>
   <path class="fil8" d="M3930 3218c-3,-28 -14,-53 -24,-79 -10,-24 -20,-49 -33,-72 6,29 11,57 17,86 5,24 9,41 10,57 1,17 0,34 -1,52 -1,21 -2,42 -1,63 1,30 -1,59 -3,88 0,7 -5,33 -9,53 -3,14 -4,28 -6,42 -3,17 -7,33 -9,49 -4,18 -9,35 -12,53 -4,23 -13,44 -21,65 -5,17 -9,34 -13,51 -3,15 -9,29 -13,44 -8,30 -16,61 -16,92 0,1 0,1 0,2 0,-1 0,-1 1,-2 2,-5 3,-10 5,-15 3,-10 7,-19 11,-28 5,-12 18,-37 26,-54 16,-30 23,-63 36,-94 9,-22 16,-44 19,-68 6,-26 12,-52 17,-78 3,-15 4,-30 7,-45 3,-19 7,-37 10,-56 3,-31 4,-63 4,-95 -2,-37 3,-75 -1,-112l0 0z"/>
   <g>
    <path class="fil8" d="M4369 5930c0,1 -1,2 0,0l0 0z"/>
    <path class="fil8" d="M4825 5469c-3,-45 -5,-90 -13,-133 -1,-5 -2,-18 -2,-20 -2,-23 -8,-45 -11,-68 -6,-36 -14,-72 -23,-107 -5,-21 -13,-42 -18,-63 -6,-19 -10,-37 -14,-56 -12,-39 -24,-78 -40,-116 -14,-34 -21,-47 -35,-82 -13,-34 -29,-67 -46,-99 -15,-35 -33,-68 -51,-102 -8,-19 -16,-37 -25,-56 -6,-15 -11,-30 -18,-44 -22,-48 -43,-96 -65,-144 -6,-14 -12,-28 -19,-42 -8,-19 -15,-39 -22,-58 -24,-59 -56,-115 -83,-173 -7,-14 -13,-28 -20,-42 -10,-20 -21,-40 -31,-61 -14,-23 -28,-47 -40,-71 -18,-58 -59,-157 -89,-224 13,81 31,162 59,239 13,26 29,50 43,75 9,19 19,38 29,57 12,24 23,49 34,73 29,58 61,118 78,169 24,61 53,120 80,181 6,14 12,27 18,41 7,19 14,38 23,56 7,14 12,29 19,43 9,18 19,36 28,54 8,16 16,33 23,49 11,23 22,45 32,68 17,43 34,80 48,114 12,27 20,55 29,84 5,15 9,31 13,47 4,14 8,29 11,43 17,58 32,116 40,176 6,29 6,35 9,63 2,13 5,26 6,39 3,24 8,103 10,144 3,32 -1,42 -6,73 -3,19 -4,27 -10,37 -6,12 -11,25 -18,36 -15,24 -34,40 -61,64 -8,8 -31,18 -50,29 -23,13 -45,27 -68,37 -16,7 -13,7 -25,11 -13,4 -26,8 -39,10 -14,3 -27,7 -41,9 -13,3 -25,7 -38,9 -9,2 -18,4 -27,5 -34,-1 -68,6 -101,12 22,2 50,3 70,5 -3,9 -5,17 -8,26 -3,11 -6,22 -12,31 -7,9 -12,20 -19,29 1,-1 1,-1 2,-2 -8,12 -26,30 -30,32 -17,12 -17,12 -35,17 -21,6 -42,10 -63,14 -26,6 -52,12 -77,17 -16,4 -33,7 -49,12 -16,4 -33,7 -49,11 -22,6 -45,11 -66,19 -18,6 -36,11 -54,17 -26,8 -51,19 -78,27 -17,6 -35,7 -53,10 -14,3 -28,8 -42,11 -30,6 -59,14 -88,20 -33,7 -66,16 -99,21 -30,6 -72,7 -114,9 -37,2 -73,-7 -109,-8 -19,-1 -38,1 -57,2 -27,2 -53,3 -80,6 -25,3 -49,10 -71,21 -12,6 -22,15 -32,25 -21,21 -38,46 -63,64 -10,8 -3,3 -20,13 -10,6 -17,9 -20,9 -16,6 -29,5 -38,3 -1,0 -2,-1 -2,-1 -2,-1 -3,-2 -5,-3 -1,-1 -4,-3 -5,-5 -2,-2 -3,-3 -5,-5 -1,-2 -2,-4 -4,-6 -9,-15 -8,-10 -16,-24 -11,-20 -20,-35 -23,-47 -10,-36 -9,-57 -12,-98 -1,-24 -1,-48 1,-71 0,-19 1,-38 2,-57 1,-38 6,-76 9,-114 2,-26 4,-36 10,-66 7,-35 16,-70 29,-104 13,-29 15,-45 27,-69 16,-34 36,-66 51,-100 31,-69 55,-142 83,-212 -29,39 -54,80 -77,123 -17,31 -30,64 -46,95 -20,39 -43,76 -57,118 -8,24 -19,47 -26,72 -7,22 -12,44 -17,67 -6,24 -9,49 -11,74 -2,29 -6,59 -8,88 -2,34 -2,69 -4,103 -1,25 0,49 2,74 1,26 4,52 9,77 3,16 11,31 19,46 7,11 12,23 21,34 0,1 1,1 1,2 4,6 7,12 12,18 8,9 18,18 29,22 31,9 64,-1 90,-18 17,-11 34,-25 48,-39 17,-18 32,-38 51,-54 8,-6 29,-17 56,-22 16,-3 52,-5 81,-7 26,-1 52,-5 78,-2 25,1 49,6 73,7 40,0 80,-2 120,-7 36,-5 72,-13 107,-21 21,-5 42,-9 63,-14 13,-3 26,-6 40,-9 14,-3 27,-8 41,-11 18,-3 36,-4 53,-10 25,-7 49,-17 73,-25 17,-6 34,-10 50,-15 18,-6 36,-12 55,-17 14,-3 28,-8 42,-10 17,-3 33,-8 50,-12 20,-4 40,-9 60,-13 18,-4 37,-9 55,-12 17,-3 34,-6 50,-12 15,-4 29,-10 40,-20 23,-18 37,-45 47,-72 0,0 0,0 0,1 0,-1 1,-2 1,-3 4,-8 6,-17 7,-26 1,-13 2,-25 2,-38 0,-2 0,-4 0,-5 5,1 9,1 13,2 30,8 73,-1 90,-3 30,-3 60,-10 90,-19 18,-7 35,-16 51,-24 19,-11 37,-22 56,-32 13,-7 27,-13 38,-23 10,-7 18,-16 28,-25 20,-17 37,-37 49,-61 10,-21 23,-41 25,-65 3,-19 8,-39 9,-58 1,-26 -3,-53 -4,-79l0 0z"/>
   </g>
   <path class="fil8" d="M3357 5188c-6,1 -11,3 -16,6 -10,4 -20,9 -30,15 -14,10 -18,14 -32,25 1,-1 1,-1 2,-2 -18,12 -36,24 -53,37 -31,25 -59,41 -95,71 -5,4 -10,9 -14,14 -1,-2 -2,-4 -2,-6 0,-19 3,-33 4,-47 3,-18 4,-34 5,-48 26,-15 51,-32 75,-51 15,-12 28,-25 42,-37 11,-10 22,-20 32,-31 4,-3 8,-7 9,-12 -2,2 -4,4 -7,5 -3,1 -6,2 -9,3 -16,9 -33,17 -48,27 -36,24 -66,56 -93,89 1,-12 2,-24 5,-37 7,-34 15,-68 28,-100 13,-32 44,-88 72,-126 -43,33 -80,76 -104,125 -16,34 -25,72 -28,110 -2,20 1,39 3,58 1,15 1,30 3,46 1,9 2,17 4,26 1,4 4,7 6,10 0,0 0,0 0,0 -8,9 -15,20 -23,29 -54,62 -98,132 -134,206 52,-60 105,-120 156,-181 17,-20 21,-30 36,-43 21,-19 38,-29 65,-50 15,-12 28,-25 42,-37 17,-15 33,-30 48,-47 11,-14 23,-26 36,-36 4,-4 8,-8 13,-10 1,0 2,-1 3,-1 0,0 -1,0 -1,0l0 0z"/>
   <path class="fil8" d="M4439 5674c-3,-16 -3,-19 -5,-36 -3,-16 -8,-32 -12,-48 -5,-16 -11,-33 -17,-49 -4,-13 -10,-25 -16,-38 -4,-9 -11,-30 -18,-49 -6,-17 -13,-34 -19,-51 -6,-16 -13,-31 -19,-46 -6,-18 -12,-36 -19,-54 -7,-22 -13,-44 -22,-66 -14,-35 -34,-80 -43,-102 -8,-21 -17,-42 -27,-63 -6,-15 -12,-30 -19,-44 -19,-39 -41,-77 -60,-117 -22,-41 -45,-82 -66,-124 -4,-8 -9,-15 -13,-23 -6,-14 -12,-28 -19,-42 -14,-28 -31,-54 -46,-81 -6,-11 -10,-23 -15,-34 -11,-23 -23,-46 -34,-69 -17,-35 -33,-70 -53,-103 -20,-30 -22,-45 -35,-79 -4,-10 -9,-19 -14,-28 -10,-20 -19,-40 -28,-60 -29,-65 -60,-129 -90,-193 13,56 28,112 48,166 14,40 42,99 55,124 8,21 13,43 23,63 8,15 18,30 26,46 10,18 19,37 27,55 15,32 30,64 46,95 6,14 11,28 19,41 16,26 31,52 45,79 9,16 14,34 23,49 24,45 47,90 72,135 17,37 38,72 56,108 15,28 18,42 34,73 9,19 13,35 25,61 10,24 25,60 39,95 7,21 12,42 20,62 7,16 10,34 17,50 6,15 12,29 17,44 5,15 12,30 17,45 5,15 10,31 16,45 7,15 13,28 15,34 6,17 13,34 21,51 5,13 10,26 16,39 3,9 6,18 9,27 5,13 10,27 13,41 3,14 5,28 8,42 1,-24 4,-47 1,-71l0 0z"/>
   <path class="fil8" d="M4226 5953c-24,-1 -45,-14 -66,-24 -17,-10 -35,-19 -52,-31 -13,-11 -28,-19 -42,-29 -14,-8 -27,-16 -40,-25 -22,-16 -27,-20 -47,-37 -17,-14 -33,-27 -48,-42 -46,-44 -70,-88 -107,-145 -29,-43 -54,-87 -81,-131 -23,-38 -49,-73 -71,-111 -18,-32 -33,-65 -51,-97 -25,-48 -53,-94 -81,-141 24,87 57,171 100,250 21,37 46,71 68,107 16,25 30,51 46,76 15,26 32,50 49,76 32,51 64,103 109,144 14,14 29,26 44,38 23,20 47,38 72,54 19,11 38,21 57,31 11,7 23,14 36,18 18,7 37,14 56,18 17,5 35,7 53,2 7,-2 1,-1 -3,-1l0 0z"/>
   <path class="fil8" d="M4575 5313c-3,-46 -4,-92 -14,-138 -3,-27 -4,-54 -10,-81 -3,-23 -5,-88 -10,-126 -2,-18 -7,-36 -11,-55 -6,-33 -12,-66 -18,-98 -1,-6 -1,-12 -1,-18 -2,-20 -3,-41 -6,-61 -9,-55 -21,-109 -37,-162 -16,-52 -36,-103 -57,-154 9,67 21,133 35,199 8,31 14,62 20,93 5,30 7,37 9,67 2,22 3,45 8,67 5,27 10,54 15,81 3,15 7,30 9,45 6,42 6,84 10,125 6,32 7,46 10,81 5,31 7,40 9,69 4,50 6,100 10,150 1,16 3,32 4,48 0,13 0,27 1,40 2,21 4,42 4,63 -1,15 -3,30 -4,46 5,-15 11,-29 15,-44 4,-17 6,-34 8,-52 0,-19 4,-37 5,-56 1,-43 -3,-86 -6,-129l0 0z"/>
   <path class="fil8" d="M3907 6036c-14,-5 -28,-10 -41,-18 -29,-17 -40,-29 -66,-49 -17,-13 -35,-25 -54,-36 -11,-7 -21,-14 -32,-20 -25,-13 -37,-20 -54,-34 -1,-1 -2,-1 -3,-2 -5,-4 -9,-8 -13,-12 -16,-12 -16,-12 -31,-26 -10,-9 -20,-16 -28,-26 -3,-3 -7,-6 -10,-9 -5,-5 -9,-10 -14,-15 -11,-12 -23,-22 -35,-34 -1,-1 -2,-2 -2,-2 0,0 0,1 1,1 11,18 23,36 34,55 4,8 9,12 10,15 9,13 11,17 23,30 11,12 8,13 25,29 6,6 6,7 16,18 1,2 7,6 8,7 1,1 2,2 3,3 15,14 33,23 50,32 12,7 23,14 34,22 18,10 36,20 53,31 20,13 41,26 63,35 18,8 37,12 57,14 10,1 21,3 32,1 -10,-1 -18,-5 -28,-8l0 0z"/>
   <path class="fil8" d="M3375 5210c-19,18 -36,39 -51,60 -16,20 -29,41 -39,64 -13,29 -16,38 -28,66 -19,38 -40,75 -57,114 -5,14 -9,29 -14,43 -7,18 -14,36 -19,54 -11,41 -18,83 -25,125 -4,22 -10,44 -13,67 -2,18 -3,36 -5,54 -2,20 -5,41 -6,61 -3,21 -8,42 -10,63 -6,62 -5,126 -20,187 11,-18 18,-37 24,-56 13,-39 21,-81 27,-122 4,-23 8,-45 11,-67 2,-23 4,-46 7,-69 1,-16 3,-32 5,-48 4,-27 11,-52 15,-79 8,-49 16,-99 35,-145 8,-19 12,-39 20,-58 12,-24 24,-48 36,-71 10,-20 21,-39 29,-60 10,-24 16,-49 25,-74 12,-27 32,-67 51,-101 2,-3 4,-6 6,-10 -1,1 -2,2 -3,3l0 0z"/>
   <g>
    <path class="fil13" d="M5490 1075c0,0 0,1 -1,1 0,0 0,0 0,-1 0,0 0,0 0,-1l0 0z"/>
    <path class="fil13" d="M6223 2019c-2,-10 -4,-21 -6,-31 0,-3 -1,-6 -1,-9 -2,-17 -2,-35 -6,-51 -6,-17 -14,-36 -29,-59 -12,-24 -29,-45 -43,-67 -9,-17 -18,-34 -26,-51 -2,-7 -5,-14 -7,-21 -1,-5 -3,-10 -4,-15 -1,-15 0,-30 0,-45 0,-15 0,-29 1,-44 0,-2 1,-5 1,-6 0,-2 1,-6 1,-9 1,-4 2,-12 1,-12 2,-16 2,-13 5,-31 3,-18 2,-17 6,-37 5,-18 8,-36 11,-54 2,-12 6,-23 7,-35 2,-9 4,-19 5,-28 2,-10 6,-20 9,-30 2,-7 2,-14 3,-22 3,-12 3,-25 4,-38 0,-23 1,-46 -1,-69 -1,-30 -3,-34 -5,-54 -3,-23 -8,-60 -19,-94 -6,-17 -13,-34 -22,-50 -3,-9 -7,-19 -12,-27 -11,-18 -24,-34 -39,-49 -9,-8 -18,-15 -27,-22 -11,-10 -25,-15 -37,-24 -7,-5 -15,-9 -22,-13 -8,-5 -17,-9 -25,-13 -4,-3 -8,-5 -13,-8 -10,-6 -22,-9 -33,-13 0,0 -1,0 -1,0 -2,-1 -4,-2 -6,-2 -14,-6 -29,-9 -43,-10 -27,-2 -38,0 -60,5 -8,2 -16,5 -23,8 -1,0 -1,1 -2,1 0,0 0,0 0,0 -11,5 -21,10 -30,18 -1,1 -2,2 -3,3 -7,2 -12,5 -17,10 -1,1 -2,2 -2,3 -1,-1 -2,-1 -3,-2 -1,-1 -3,-1 -4,-2 0,0 0,0 0,0 -4,-2 -7,-4 -20,-4 -10,0 -19,4 -28,9 -8,3 -15,7 -23,10 0,0 -1,0 -1,0 -8,3 -15,6 -23,10 -7,4 -15,8 -22,13 0,0 0,0 0,0 -2,1 -3,1 -5,2 -18,12 -34,28 -48,44 -9,13 -10,12 -21,29 -9,14 -17,28 -23,43 0,0 0,-1 0,-1 0,0 0,1 -1,1 0,0 0,1 -1,1 0,0 0,0 0,-1 -7,16 -9,33 -14,50 -6,25 -13,50 -17,76 -1,13 -2,10 -3,27 0,17 -1,33 0,50 2,19 7,43 9,60 2,16 5,32 8,47 0,-1 0,-3 -1,-4 1,11 3,22 6,34 3,11 4,21 6,32 3,11 5,22 6,33 0,1 0,2 0,4 0,11 2,22 2,33 1,24 0,38 -3,53 1,4 -15,60 -17,63 -1,1 -1,3 -2,4 -1,1 -2,2 -3,3 -1,1 -1,2 -2,2 0,0 -1,1 -1,1 -17,10 -34,21 -53,29 -8,4 -15,9 -23,13 -13,6 -26,13 -37,22 -5,4 -10,8 -14,13 -4,1 -7,3 -10,6 -9,9 -13,18 -19,25 -10,13 -14,29 -18,44 -1,4 -2,5 -3,8 -4,7 -6,15 -7,22 0,1 0,2 0,3 0,0 0,0 0,0 0,0 0,0 0,0 0,0 0,0 0,0 4,-8 8,-13 13,-18 1,-1 3,-3 4,-4 -1,7 -1,14 -1,21 -1,8 -1,17 1,25 3,8 5,15 9,23 1,2 2,4 4,5 0,0 0,1 1,1 0,0 0,1 0,1 6,10 9,23 18,31 1,1 2,0 2,1 0,1 1,1 2,1 0,0 1,1 1,0 0,-1 -1,-1 -1,-1 0,0 0,0 0,-1 -4,-2 -5,-7 -6,-11 -2,-7 -3,-15 -5,-22 -1,-4 -3,-6 -4,-11 -2,-10 -3,-16 -3,-22 0,-5 3,-17 6,-29 4,-18 7,-23 18,-41 13,-21 11,-16 15,-23 10,-12 16,-17 20,-20 5,-5 28,-18 37,-21 8,-4 16,-10 24,-14 18,-8 35,-19 52,-29 4,-3 6,-6 9,-10 0,0 0,0 0,0 9,-9 12,-21 16,-33 3,-10 6,-21 9,-31 5,-15 5,-26 6,-31 2,-10 2,-20 2,-31 0,0 0,0 0,1 2,10 5,19 7,28 1,4 1,8 3,12 0,0 0,0 0,0 0,0 0,0 0,0 1,2 1,3 2,5 6,8 17,6 21,-1 4,9 8,18 14,25 6,6 18,4 21,-4 3,-6 0,-13 -1,-20 -1,-4 -1,-8 -2,-13 0,0 1,-1 1,-1 3,5 5,10 7,13 3,10 2,13 3,26 0,18 0,13 -7,29 -5,10 -13,19 -19,29 -11,18 -14,22 -33,38 -1,1 -8,6 -17,12 -5,4 -10,8 -15,13 -15,10 -33,20 -39,38 -6,17 -7,36 -9,54 -1,20 4,40 10,59 2,8 4,16 7,22 2,6 4,13 10,17 1,1 3,1 4,2 0,0 0,0 0,1 1,0 2,0 2,0 -1,0 -1,0 -1,-1 1,0 3,1 4,2 -2,-1 -3,-2 -5,-4 0,0 0,-1 0,-1 -2,-6 -4,-12 -5,-18 -3,-9 -3,-19 -2,-29 1,-8 0,-9 3,-19 2,-22 13,-45 26,-61 -2,2 2,-2 4,-4 8,-9 17,-17 25,-27 3,-4 8,-7 11,-11 6,-6 13,-12 19,-18 6,-5 10,-11 15,-17 8,-9 18,-17 26,-26 5,-6 11,-12 15,-19 4,-7 6,-15 10,-22 2,-6 5,-11 6,-17 4,-13 4,-39 4,-39 0,0 -32,-47 -58,-219 -41,-157 -20,-250 101,-338 3,-6 5,-12 8,-17 3,-5 5,-9 8,-14 2,4 4,9 8,13 11,14 29,17 45,22 2,1 3,1 5,2 0,0 0,0 0,0 7,3 14,6 21,8 8,3 9,3 23,9 9,5 19,8 26,15 2,2 2,2 2,2 8,6 7,5 19,16 10,9 18,19 29,28 11,10 22,21 32,33 1,1 2,3 3,4 8,15 7,12 11,22 6,16 7,17 10,26 7,23 8,33 9,48 4,28 -2,77 -4,90 -5,24 -3,19 -6,40 -1,10 -1,20 -2,30 0,0 0,1 0,1 -1,2 -1,4 -2,5 -1,4 -2,9 0,13 0,0 0,0 1,1 0,3 -1,7 -1,10 0,19 -1,16 -2,37 -2,16 -2,32 -2,48 0,28 0,57 0,85 4,30 5,38 9,63 0,2 1,4 1,7 0,2 0,4 1,6 2,10 4,19 6,29 2,17 7,34 13,50 4,12 10,24 16,36 6,13 13,26 20,39 7,14 6,16 15,34 2,6 5,13 7,19 5,10 3,7 10,22 2,5 5,10 7,15 0,0 0,1 0,1 2,5 3,9 5,14 0,1 0,1 0,2 0,9 0,9 0,12 -2,11 -7,22 -10,33 -3,9 -6,18 -9,27 0,0 0,0 0,0 0,0 0,1 0,1 -2,4 -4,7 -7,11 -2,3 -7,9 -12,14 -1,1 -1,1 -2,2 0,0 0,0 0,1 0,0 -1,2 0,1 0,0 0,0 1,-1 1,0 1,-1 2,-1 5,-1 8,-4 12,-7 6,-4 11,-8 16,-13 5,-6 9,-13 12,-20 1,-2 2,-5 3,-7 0,4 -1,7 -1,10 -1,7 -3,13 -5,20 -2,3 -4,7 -6,12 -8,12 -14,27 -22,39 -5,7 -12,14 -18,21 -1,1 -2,2 -2,4 0,0 -1,1 0,0 3,-4 8,-5 11,-8 6,-4 12,-8 18,-13 4,-3 7,-8 10,-11 7,-8 10,-12 18,-21 11,-13 20,-27 27,-43 8,-26 7,-53 3,-79 0,-2 -1,-4 -1,-7 0,-1 0,-1 0,-2 1,-8 2,-15 3,-23 0,-2 0,-4 1,-7 0,1 1,1 1,2 1,1 2,3 3,4 1,2 2,4 3,6 4,7 8,21 14,44 3,13 9,25 10,38 -1,-9 0,1 1,5 -1,9 -3,18 -7,35 -3,12 -6,25 -11,37 -3,9 -4,12 -11,24 -3,5 -3,6 -7,9 -5,4 -10,8 -14,14 -1,1 -1,2 -2,2 1,-1 2,-1 3,-2 6,-5 11,-6 17,-9 9,-5 18,-14 25,-25 -2,7 -4,14 -7,21 -5,12 -8,20 -17,37 -3,7 -6,15 -11,22 -1,1 -2,3 -4,4 7,-3 11,-10 16,-15 5,-7 11,-13 17,-21 8,-11 17,-23 23,-36 7,-13 11,-27 15,-41 4,-17 6,-35 5,-52 2,-13 2,-26 0,-39 -2,-11 -5,-20 -9,-30 0,-2 -1,-5 -1,-7 0,0 0,0 0,0 5,9 10,17 15,26 4,8 10,25 13,40 2,9 5,19 7,28 1,13 2,27 0,40 0,0 0,1 0,2 -2,5 -3,11 -5,16 -1,5 -1,9 -3,14 -2,7 -4,11 -9,20 -2,3 -4,6 -5,10 -2,3 1,0 2,-1 2,-3 6,-5 8,-7 4,-4 9,-8 12,-13 7,-9 6,-12 11,-20 2,-3 3,-6 5,-9 -2,10 -4,21 -7,30 -1,2 -1,5 -3,7 3,-1 4,-5 6,-7 4,-7 8,-15 11,-22 0,7 0,15 0,22 0,8 -3,15 -7,23 -3,5 -5,11 -8,16 -2,3 0,1 1,0 7,-8 16,-16 21,-25 9,-17 11,-37 13,-57 1,-10 1,-20 0,-31l0 0zm-630 -854c0,-1 0,-2 0,-3 1,-2 2,-4 3,-6 -1,3 -2,6 -4,9zm379 424c0,-1 0,-2 -1,-3 0,-1 0,-3 0,-4 0,1 0,2 1,4 1,5 2,9 2,13 -1,-3 -2,-7 -2,-10l0 0z"/>
   </g>
   <path class="fil13" d="M7363 2330c0,5 1,11 3,16 0,-5 -1,-11 -3,-16z"/>
   <path class="fil13" d="M6000 1596c0,-8 0,-17 0,-25 0,-4 0,-8 -2,-12 -5,-8 -18,-10 -23,-2 0,0 -1,0 -1,0 -1,-1 -1,-1 -2,-1 1,-4 3,-7 1,-11 -1,-4 -4,-7 -8,-9 3,-5 6,-10 5,-15 0,-6 -5,-10 -10,-11 1,-2 3,-3 4,-5 5,-5 7,-12 4,-18 4,-10 5,-20 -7,-24 -3,-1 -6,-1 -8,0 3,-6 6,-11 9,-17 4,-10 7,-20 10,-30 1,-5 2,-9 3,-14 3,-6 5,-13 6,-19 1,-6 3,-12 -2,-17 -4,-4 -11,-3 -14,2 -4,6 -7,13 -9,20 -7,18 -7,21 -18,42 -4,7 -10,14 -14,21 -10,14 -19,29 -28,43 -2,3 -4,5 -5,7 -1,-2 -2,-4 -3,-5 -6,-10 -12,-19 -17,-29 -4,-5 -9,-10 -13,-15 -11,-11 -24,-19 -39,-24 0,0 0,0 0,0 -11,-5 -14,-4 -24,-6 -7,0 -14,1 -20,3 -3,0 -5,-1 -8,0 -1,0 -3,0 -4,0 -2,0 -5,0 -7,1 0,0 0,0 0,0 0,0 0,0 0,0 -1,0 -1,1 -2,2 0,0 0,0 0,1 -1,0 -2,0 -3,-1 1,1 1,1 2,2 0,0 0,0 0,0 0,0 0,0 0,1 0,1 0,2 0,2 0,1 1,2 2,3 1,1 2,1 3,1 1,0 2,0 3,0 3,1 5,1 8,1 0,0 4,1 5,1 7,3 12,5 17,7 12,6 11,7 20,13 9,5 15,9 21,13 7,7 14,15 22,21 7,4 15,13 24,19 1,0 1,1 2,1 -1,1 -2,3 -4,4 -16,20 -26,27 -40,39 -3,2 -5,4 -7,6 -1,1 -2,1 -3,2 -2,1 -4,2 -6,3 -2,1 -4,1 -6,2 -1,0 -2,0 -3,1 -9,1 -19,1 -28,0 -19,2 -38,1 -57,-1 -9,0 -11,-1 -23,-2 -5,-3 -11,-6 -16,-9 -5,-2 -16,-7 -19,-8 -3,-1 -7,-3 -11,-5 8,-16 10,-27 11,-37 3,-7 5,-11 8,-17 8,-11 10,-20 15,-30 5,-10 13,-17 22,-24 2,0 4,0 5,-1 2,0 4,0 6,0 0,0 0,0 0,0 0,0 0,0 0,0 0,0 0,0 0,0 1,0 1,-1 2,-1 0,0 0,-1 1,-1 0,0 0,0 0,0 0,0 0,-1 0,-1 0,0 0,0 0,0 0,0 0,0 0,-1 0,0 1,0 1,0 -1,0 -1,0 -2,-1 0,0 -1,0 -1,-1 0,0 0,0 0,0 -7,-3 -13,-3 -19,-2 -5,0 -10,1 -15,3 -8,4 -15,9 -21,16 -5,5 -10,11 -13,18 -12,27 -11,42 -14,59 0,-1 0,-2 0,-3 -1,5 -2,10 -4,14 0,1 -1,2 -1,3 0,0 0,0 0,0 -4,-2 -7,-2 -11,-2 -6,0 -10,4 -13,9 -3,-8 -6,-16 -8,-24 0,-9 -4,-19 -13,-22 -8,-3 -18,3 -20,12 -3,12 -1,24 -1,36 0,2 0,3 -1,5 0,-1 0,-1 -1,-2 -4,-13 -8,-27 -13,-39 2,12 3,25 3,37 -2,-1 -5,-2 -8,-2 -2,-1 -4,-2 -6,-2 -1,-4 -2,-8 -3,-11 0,-2 0,-3 0,-5 1,-6 2,-12 3,-18 0,-4 1,-8 -1,-12 -6,-14 -25,-9 -26,6 -2,9 -3,18 -5,27 -4,2 -8,5 -10,9 -2,5 -3,10 -4,15 0,0 0,1 0,2 -4,18 -5,35 -6,53 0,8 -1,19 2,28 -1,5 -2,9 -3,14 -1,1 -1,3 -2,4 -12,11 -17,15 -27,22 -1,1 -4,3 -5,3 -1,1 -5,2 -6,3 -6,2 -13,4 -20,5 -10,3 -19,7 -28,12 -7,3 -13,7 -20,11 -7,3 -13,7 -19,11 -12,10 -21,19 -28,31 -2,3 -4,5 -6,8 -4,4 -15,19 -18,32 -3,11 -4,22 -4,33 5,-11 8,-23 16,-34 6,-9 14,-14 24,-23 2,-2 6,-4 15,-11 3,-3 1,-2 9,-6 5,-1 9,-3 14,-5 6,-2 12,-3 18,-5 -1,1 -2,2 -2,3 -9,9 -16,18 -23,29 -7,13 -16,26 -21,40 -7,20 -6,25 -8,49 0,20 1,42 13,59 3,4 6,8 10,12 3,3 6,5 7,8 1,3 2,5 4,8 3,6 7,11 12,16 0,0 1,2 0,0 -1,-3 -2,-5 -3,-7 -1,-3 -3,-7 -4,-11 -2,-4 -1,-4 -2,-9 -1,-6 -6,-10 -9,-16 -1,-3 -2,-5 -3,-8 3,4 6,8 9,11 3,3 8,7 10,9 3,4 7,8 10,12 2,3 9,11 14,14 3,2 6,5 9,7 2,1 3,2 4,3 1,0 1,1 2,1 1,2 1,3 1,5 0,-1 0,-3 1,-4 0,-1 0,-2 0,-3 0,-1 -1,-1 -1,-2 -1,-2 -3,-4 -4,-6 1,1 3,2 4,3 10,7 26,21 39,34 1,1 1,1 2,2 0,-1 -1,-2 -1,-2 -8,-17 -18,-33 -31,-47 -3,-4 -6,-8 -8,-12 0,-1 -1,-2 -2,-2 -1,-1 -1,-2 -2,-3 -3,-6 -6,-12 -10,-18 0,1 1,2 1,3 -7,-15 -3,-7 -8,-18 -4,-8 -6,-14 -9,-30 0,0 0,0 0,-1 0,0 0,-1 0,-1 0,-7 1,-15 1,-22 0,-13 0,-12 2,-22 2,-12 3,-13 8,-22 1,-1 1,-3 2,-4 3,-1 6,-3 9,-5 11,-6 22,-14 33,-20 0,0 0,0 0,0 6,-3 11,-4 17,-6 -3,5 -6,10 -8,16 -3,8 -5,17 -8,25 -1,6 -2,13 -3,19 -2,9 -2,19 -1,28 1,13 3,24 6,37 3,10 4,10 6,16 3,9 8,17 14,24 0,0 3,4 3,5 3,4 6,6 8,7 3,3 6,4 9,6 4,3 8,4 12,6 2,1 1,0 0,-1 -2,-2 -5,-5 -7,-7 -5,-6 -12,-14 -13,-19 -1,-3 -4,-10 -5,-11 0,-1 -2,-7 -2,-10 -3,-14 -4,-18 -5,-28 0,1 0,1 0,0 0,0 0,0 0,0 -1,-6 -1,-9 -2,-21 -1,-10 -2,-13 -2,-30 0,-10 -1,-20 0,-29 0,-12 1,-23 4,-35 4,-1 7,-2 11,-3 11,-3 21,-9 29,-16 16,-11 31,-24 43,-40 8,-12 15,-25 23,-37 6,-11 12,-22 17,-33 1,2 3,4 5,6 1,3 3,5 4,8 2,8 4,17 7,25 3,9 8,17 13,25 5,8 10,17 17,25 7,7 15,12 23,17 12,8 26,15 39,22 15,8 33,5 50,4 10,0 19,-2 28,-5 16,-4 17,-5 34,-14 1,-1 3,-1 4,-2 7,-2 15,-5 21,-9 11,-7 28,-23 35,-29 6,-6 10,-15 15,-22 6,-11 13,-22 17,-34 2,-5 5,-11 7,-16 0,-1 0,-1 1,-2 0,0 0,0 0,0 5,-11 5,-11 12,-26 0,-1 0,-2 1,-2 4,-4 8,-8 12,-12 3,7 6,13 10,19 8,12 21,11 27,2 6,-1 12,-6 12,-15 0,-2 -1,-5 -1,-7l0 0zm-374 -25c-1,3 -3,6 -4,9 0,-2 0,-4 0,-5 2,-1 3,-2 4,-3l0 0zm7 21c-7,2 -13,10 -11,17 1,6 4,10 9,12 0,0 0,0 0,0 -6,-1 -12,1 -15,5 0,0 0,-1 -1,-1 0,-1 1,-1 1,-2 3,-10 5,-21 6,-31 0,0 0,0 1,-1 3,-3 5,-5 8,-8 1,2 2,3 3,5 0,1 1,1 0,1 1,1 1,1 2,2 -1,0 -2,0 -3,0l0 0z"/>
   <path class="fil10" d="M5943 1811c2,-3 3,-7 3,-11 0,-8 -5,-14 -12,-16 0,-1 2,-1 3,-1 2,0 3,-1 4,-3 -1,2 -3,3 -5,2 -1,-1 -3,0 -4,1 0,0 0,0 0,0 0,0 0,0 -1,0 -5,0 -9,3 -13,6 -6,5 -11,11 -16,17 -1,2 -3,4 -4,6 -7,-1 -15,2 -18,12 -2,8 -5,17 -7,25 -2,7 -4,14 -2,22 -2,7 -4,14 -4,21 0,0 0,0 0,1 -1,4 -2,9 -2,14 -1,2 -2,4 -3,6 -2,-1 -4,-2 -7,-2 -4,-1 -9,2 -8,7 1,5 6,7 9,10 7,6 14,11 22,15 2,1 16,5 13,-1 -2,-1 -3,-1 -5,-1 -8,-2 -14,-8 -20,-15 1,0 1,-1 1,-1 1,-1 2,-2 3,-3 6,5 15,2 20,-4 7,-9 10,-19 12,-30 3,-6 6,-14 8,-21 2,-3 3,-5 5,-8 2,1 4,3 6,3 14,5 28,-8 28,-21 0,-9 -2,-22 -7,-31l0 0z"/>
   <path class="fil12" d="M6111 2378c-10,3 -14,6 -21,9 -8,3 -14,6 -21,11 -5,3 -11,5 -15,8 -13,8 -22,10 -40,17 -30,12 -40,20 -68,25 -7,2 -27,2 -46,2 -25,0 -28,-1 -48,-3 -8,-1 -49,-15 -71,-22 -15,-5 -26,-10 -47,-22 -11,-7 -22,-12 -33,-19 -14,-8 -29,-12 -44,-17 -11,-3 -23,-3 -34,-3 -13,0 -27,0 -40,3 -33,7 -88,-1 -130,-9 -15,-3 -29,-6 -44,-9 -19,-6 -17,-5 -34,-14 -10,-5 -20,-12 -29,-19 0,0 -1,-1 -1,-1 -18,-17 -34,-36 -50,-54 -11,-12 -23,-23 -34,-35 -12,-17 -22,-35 -36,-50 5,6 -1,-1 -4,-5 -13,-18 -29,-35 -47,-48 -28,-17 -58,-28 -88,-39 28,20 54,37 76,56 18,20 24,30 39,54 12,16 21,33 32,50 11,14 24,25 36,38 21,23 40,49 66,67 19,13 41,25 64,31 17,4 34,7 51,11 39,6 78,13 118,11 20,-2 24,-4 36,-5 2,0 3,0 5,0 -8,14 -15,28 -22,42 -14,-5 -28,-9 -42,-11 -15,-1 -30,0 -44,3 -12,4 -25,8 -36,16 -16,11 -29,24 -43,38 -10,11 -19,23 -29,33 -25,25 -40,58 -56,89 -7,16 -14,31 -22,47 -8,21 -12,29 -16,40 -9,20 -8,20 -17,39 -6,13 -12,25 -18,38 -1,3 -4,9 -5,11 -6,18 -6,17 -13,32 -4,9 -7,19 -11,28 -16,37 -34,74 -53,110 16,-17 30,-34 44,-52 24,7 48,12 72,17 -1,2 -3,5 -4,7 -7,13 -15,25 -22,38 -13,23 -25,47 -34,72 -7,15 -13,30 -18,46 -6,19 -13,39 -17,59 -4,18 -3,18 -5,34 -3,20 -2,40 -2,60 -2,-1 -3,-1 -4,-2 -18,-8 -33,-19 -51,-27 -20,-9 -39,-19 -59,-28 -9,-5 -19,-8 -27,-13 -30,-19 -60,-36 -90,-54 25,25 52,50 79,74 9,7 18,12 27,18 16,11 32,20 49,29 19,9 37,21 57,30 7,3 13,6 20,8 1,9 0,17 0,26 0,1 0,2 0,2 0,-1 0,-1 0,-1 1,-6 3,-11 5,-17 0,-3 1,-5 2,-8 16,6 33,10 50,15 23,4 45,11 68,12 15,0 30,3 45,4 26,1 52,0 78,0 55,1 111,-6 163,-23 15,-5 31,-8 46,-14 13,-4 26,-8 38,-14 13,-8 26,-15 38,-24 10,-8 21,-16 32,-23 2,-1 4,-2 6,-4 0,0 0,0 0,0 1,0 2,-1 3,-2 2,-1 3,-3 5,-4 1,43 1,87 -2,130 0,12 -4,26 -7,47 -1,6 -5,38 -5,41 -4,21 -10,43 -16,64 -5,16 -7,33 -9,50 -2,17 -6,34 -8,51 -3,21 -15,72 -21,108 -5,18 -9,37 -13,55 -6,22 -13,45 -19,67 -6,22 -17,42 -21,64 -5,21 -10,43 -14,65 -6,28 -11,56 -20,83 -7,19 -12,39 -20,58 -8,23 -15,47 -21,71 -4,18 -6,36 -11,53 -6,24 -10,49 -15,73 -6,27 -15,53 -20,80 -1,7 -4,15 -4,22 -1,7 0,14 0,21 -1,17 -2,34 -2,50 -1,8 0,16 1,25 0,5 -1,11 -1,16 0,3 1,6 0,8 -1,1 -2,2 -2,4 0,0 0,0 0,0 0,0 0,0 1,-1 1,-1 2,-2 3,-3 1,-2 1,-5 1,-7 1,-6 4,-12 5,-18 1,-7 2,-13 4,-20 5,-17 9,-35 13,-52 2,-15 2,-19 9,-36 8,-26 19,-50 25,-76 7,-31 13,-63 20,-94 3,-19 7,-37 12,-56 6,-23 13,-45 22,-67 7,-19 13,-37 18,-56 7,-24 11,-48 17,-73 4,-26 11,-51 17,-77 10,-28 21,-56 28,-85 12,-39 21,-78 28,-119 6,-30 13,-60 17,-90 0,1 0,3 -1,4 4,-22 8,-43 10,-65 7,-39 24,-77 26,-117 2,-22 5,-45 6,-68 -2,-46 -11,-92 -23,-136 6,-5 13,-10 20,-15 1,0 1,-1 2,-1 -2,0 -3,1 -5,1 -7,2 -13,5 -19,8 -1,-2 -1,-4 -2,-5 0,2 0,4 0,6 -3,2 -6,3 -10,5 -3,0 -7,2 -10,3 -9,4 -8,4 -15,6 -20,9 -28,14 -45,21 -13,7 -29,10 -50,15 -12,3 -23,6 -35,8 -15,4 -30,9 -45,13 -16,3 -28,6 -40,7 2,-3 3,-6 5,-9 13,-15 26,-30 41,-44 8,-7 16,-13 24,-21 7,-7 14,-16 21,-23 22,-22 43,-45 61,-71 11,-13 19,-28 27,-43 7,-16 17,-30 25,-45 5,-12 8,-20 17,-33 0,-1 1,-1 1,-2 0,0 0,0 0,-1 1,-1 3,0 3,-1 1,-1 2,-3 3,-3 1,0 2,0 3,-1 1,-1 2,-2 3,-3 0,0 0,0 -1,0 -1,1 -2,1 -3,2 -1,0 -3,0 -4,0 -1,1 -2,1 -3,2 0,0 0,0 0,0 -3,0 -5,1 -7,3 -9,7 -16,16 -22,25 -3,4 -7,8 -10,11 -6,7 -12,13 -18,20 -8,10 -9,12 -13,17 -12,15 -25,30 -38,44 -18,21 -40,46 -50,59 -13,17 -15,22 -28,36 -7,8 -13,16 -18,25 1,-6 2,-13 3,-19 1,-19 3,-37 -2,-56 -2,-12 -7,-27 -10,-39 0,-3 0,-5 0,-8 -1,-9 -1,-19 -3,-28 0,-1 -1,-2 -1,-3 0,-11 0,-22 0,-32 0,-7 1,-14 1,-21 0,-1 0,-1 0,-2 4,-22 9,-43 14,-64 3,-18 6,-35 11,-52 6,-22 14,-43 20,-65 5,-16 11,-31 16,-47 4,-11 12,-30 18,-52 6,-17 11,-34 17,-51 4,-10 8,-20 12,-30 6,-14 10,-28 14,-43 7,-27 8,-56 1,-82 -4,-13 -11,-25 -19,-36 -5,-7 -10,-15 -16,-21 -6,-5 -12,-10 -19,-14 4,-17 8,-33 13,-50 15,0 27,-1 34,2 10,4 19,7 29,10 8,4 16,9 25,13 9,5 18,11 27,16 25,14 52,22 79,31 12,3 23,7 34,10 15,2 31,5 56,5 22,0 44,1 65,-5 23,-6 43,-20 64,-31 25,-12 36,-22 51,-33 4,-3 7,-6 11,-9 4,-3 7,-5 11,-8 8,-6 15,-11 24,-16 7,-4 13,-9 21,-13 -11,3 -22,7 -32,10l0 0zm-884 517c10,-13 19,-26 27,-40 9,-15 17,-30 25,-45 10,-21 10,-22 19,-42 10,-19 18,-38 26,-57 8,-19 10,-24 18,-45 8,-16 16,-33 23,-50 6,-11 11,-22 18,-33 6,-9 11,-18 17,-27 8,-10 16,-19 25,-28 13,-17 28,-33 45,-46 11,-9 7,-7 21,-15 0,0 0,0 0,0 7,-3 14,-6 21,-7 8,-1 16,-1 24,-1 3,0 6,0 9,0 1,0 2,0 3,1 8,2 16,4 23,7 -3,7 -7,13 -11,20 -17,26 -31,55 -47,82 -22,35 -43,71 -61,108 -18,38 -65,98 -79,119 -25,29 -44,62 -64,94 -1,2 -2,3 -3,5 -26,0 -53,0 -79,-1l0 0zm284 369c-6,1 -12,1 -19,2 -36,3 -72,1 -108,2 -24,0 -49,-3 -73,-5 -7,-1 -43,-8 -63,-13 -13,-4 -28,-8 -39,-12 1,-3 1,-6 2,-8 4,-25 10,-49 17,-74 6,-20 13,-39 20,-58 7,-20 9,-28 15,-41 11,-25 14,-37 30,-65 10,-19 21,-38 31,-57 2,-5 5,-10 7,-14 16,2 26,3 46,11 9,3 19,7 35,16 7,5 15,9 22,14 13,12 10,9 21,23 0,0 0,0 0,0 15,21 31,40 43,63 0,6 0,11 0,17 -1,19 3,37 10,55 7,20 12,38 13,51 4,35 2,62 -8,93 0,0 0,1 -1,1l0 0zm91 -774c4,6 9,13 13,19 6,11 5,9 7,14 4,15 2,8 4,22 1,10 0,20 -1,30 -3,16 -9,32 -13,48 -1,2 -1,2 -1,2 -1,2 -1,3 -2,5 -7,17 -6,16 -11,27 -8,20 -15,44 -22,64 -7,23 -10,25 -16,45 -6,19 -14,38 -19,57 -7,21 -14,42 -19,64 -4,15 -6,30 -9,44 -5,20 -9,40 -13,61 -2,-3 -5,-7 -7,-10 -5,-8 -10,-15 -16,-22 -1,-1 -8,-12 -11,-14 -14,-14 -31,-25 -49,-33 -19,-8 -38,-15 -58,-18 -5,-1 -9,-1 -14,-1 8,-12 16,-24 23,-36 14,-22 18,-26 31,-42 20,-27 40,-55 59,-83 19,-26 30,-56 46,-84 8,-15 18,-30 26,-45 10,-15 19,-31 26,-48 11,-25 24,-50 33,-76 0,-1 1,-2 1,-3 6,4 8,7 12,12l0 0z"/>
   <path class="fil12" d="M4823 4734c0,0 0,-1 -1,-1 -7,-8 -14,-16 -19,-25 -5,-6 -10,-12 -13,-17 -9,-15 -18,-30 -29,-44 -8,-12 -18,-23 -29,-32 -2,-1 -3,-3 -5,-4 1,-19 3,-38 4,-57 1,-38 0,-75 -4,-113 -8,37 -16,75 -22,112 -3,14 -6,29 -8,44 -1,6 -1,12 -1,17 0,4 -1,9 1,12 2,5 7,9 12,9 9,6 6,5 18,13 10,8 18,19 27,27 11,12 22,25 35,34 6,4 11,9 16,14 5,4 11,6 16,10 -10,25 -19,49 -27,75 -2,10 -4,21 -5,31 -4,23 -6,46 -6,69 -1,23 -2,45 -3,68 -1,13 -2,26 -2,39 0,0 0,0 0,0 0,0 0,0 0,0 0,0 0,-1 0,-1 16,-42 28,-85 33,-129 1,-8 6,-40 7,-65 1,-14 2,-19 5,-37 4,-25 7,-50 10,-75 -4,8 -7,16 -10,25l0 0z"/>
   <path class="fil12" d="M5639 3303c-10,39 -20,78 -29,117 -14,62 -27,124 -37,187 -2,24 -9,48 -16,81 -9,47 -18,95 -29,142 -5,27 -12,54 -20,80 -6,23 -13,46 -21,69 -9,31 -17,61 -26,92 -4,15 -6,31 -11,46 -4,11 -7,23 -10,34 -3,10 -7,20 -9,31 -7,30 -16,59 -24,88 -3,14 -5,29 -8,44 -2,6 -3,12 -4,19 -1,-1 -2,-2 -2,-3 -3,-3 -6,-6 -9,-9 -1,-1 -1,-2 -3,-3 2,2 2,6 4,8 3,5 5,10 7,15 0,1 -1,3 -1,4 -4,14 -10,28 -14,43 -9,-2 -22,-5 -31,-6 -12,-3 -24,-5 -37,-7 -5,-1 -10,-2 -15,-2 -1,0 -2,-1 -3,-1 0,0 -1,0 -1,0 -4,0 -7,-1 -11,-1 -4,0 -11,-2 -25,-3 -25,-2 -47,-6 -80,-12 -23,-4 -44,-13 -67,-17 -1,0 -3,-1 -4,-1 12,-34 20,-69 25,-105 3,-17 6,-34 9,-51 3,-14 4,-28 7,-42 3,-19 6,-37 9,-56 2,-16 3,-27 5,-32 1,-7 3,-14 5,-22 1,-9 1,-18 2,-27 3,-27 2,-54 4,-80 2,-20 5,-40 6,-60 1,-15 1,-31 3,-46 0,0 0,0 0,0 0,0 0,0 0,0 0,-3 1,-5 1,-8 0,-4 -1,-8 -1,-12 0,2 -1,7 -1,8 -1,8 -6,15 -8,22 -4,11 -6,23 -10,34 -6,25 -15,49 -19,74 -3,14 -4,31 -5,34 -2,18 -5,35 -6,53 -2,9 -4,18 -6,27 -6,47 -15,82 -19,139 -3,28 -2,55 -2,83 -1,21 -2,43 -4,64 -25,-7 -49,-15 -74,-21 -17,-3 -34,-8 -52,-11 -34,-6 -68,-9 -102,-13 0,0 1,-1 1,-1 2,-1 5,-1 6,-3 0,0 1,-2 1,-2 0,0 0,0 0,0 1,0 2,0 2,-1 0,-1 0,-2 0,-3 0,1 -1,2 -1,3 -1,0 -2,-1 -3,0 -1,1 -1,2 -2,2 -4,-1 -7,1 -11,4 -7,3 -14,6 -21,10 -16,9 -32,16 -47,27 -13,10 -26,19 -37,31 -16,17 -30,36 -43,55 0,-1 1,-3 1,-4 4,-12 7,-24 9,-37 2,-7 4,-15 4,-22 0,-2 0,-3 0,-4 0,-1 0,-2 0,-3 1,-6 2,-12 3,-19 2,-16 1,-32 3,-47 2,-16 3,-32 4,-47 0,0 0,0 0,0 2,-10 1,-20 2,-31 4,-30 6,-56 6,-86 4,-37 8,-75 12,-112 2,-15 3,-29 5,-44 2,-12 4,-23 5,-35 0,-2 0,-4 0,-4 0,-3 1,-6 1,-8 2,-10 4,-20 5,-31 4,-26 4,-31 8,-58 2,-41 4,-54 12,-94 5,-29 8,-57 11,-82 2,-13 4,-25 5,-38 7,-35 13,-71 22,-106 7,-28 12,-56 19,-83 3,-16 5,-33 9,-50 5,-19 9,-38 14,-58 4,-12 8,-23 11,-35 2,-7 3,-15 4,-23 0,-1 0,-3 1,-4 3,-12 6,-24 10,-36 12,-37 34,-74 53,-116 -30,35 -62,70 -80,112 -4,9 -8,19 -11,29 -3,10 -5,21 -8,31 -4,13 -8,25 -12,38 -2,10 -4,19 -7,29 -5,20 -10,41 -13,62 -11,53 -25,106 -35,160 -1,6 -2,12 -3,18 -2,10 -5,19 -6,28 -2,22 -7,47 -10,79 -2,19 -4,31 -10,59 -4,24 -4,28 -6,48 -1,27 -3,43 -6,61 0,3 -1,12 -2,15 -2,15 -5,29 -8,44 -2,14 -2,15 -3,21 -4,18 -5,36 -6,54 -6,40 -9,80 -14,121 -2,15 -1,31 -2,46 -1,11 -2,21 -3,32 -2,11 -3,22 -3,33 0,11 -1,8 -3,26 -1,15 -3,30 -3,46 0,14 1,28 1,42 -1,9 -1,19 -1,28 0,6 -1,13 -1,19 0,9 0,6 -1,14 0,6 -1,12 -2,19 0,6 -1,11 0,17 1,2 3,4 6,4 -2,3 -4,6 -6,9 4,-3 8,-6 12,-9 14,5 29,9 43,15 -8,-7 -21,-15 -33,-22 43,-34 79,-67 117,-97 7,-6 14,-13 20,-19 3,-3 7,-6 10,-10 32,12 65,23 98,34 18,7 35,13 54,19 32,10 63,22 96,28 3,1 5,1 7,2 -10,19 -18,39 -25,59 -5,18 -8,37 -11,55 -1,6 -2,32 -4,48 0,5 -2,14 -5,28 -2,18 -6,36 -10,61 -4,17 -9,34 -13,51 -6,29 -6,42 -11,73 -5,40 -15,79 -25,118 -4,17 -9,34 -13,51 -3,14 -7,28 -12,42 -8,26 -13,53 -21,79 -11,32 -17,65 -25,98 -3,11 -5,22 -7,33 -3,11 -6,21 -9,32 -4,22 -4,31 -7,47 -3,21 -9,41 -12,62 -3,27 -5,39 -9,70 -4,24 -12,79 -20,122 -5,41 -9,68 -17,113 -2,9 -2,19 -3,28 -2,12 -3,23 -3,35 0,10 0,21 -1,31 -2,12 -2,24 -3,36 0,1 0,3 -1,4 -2,18 -2,20 -5,40 -2,11 -4,21 -6,32 -1,12 0,23 -1,35 -3,25 -5,44 -7,59 -4,18 -9,36 -17,52 -8,13 -11,29 -19,43 3,-3 6,-7 8,-11 5,-7 9,-15 14,-22 4,-6 9,-11 12,-17 7,-11 11,-22 14,-29 2,-6 3,-5 6,-14 3,-9 4,-18 7,-27 5,-20 10,-40 10,-60 0,-1 0,-3 0,-4 0,1 0,2 -1,4 1,-9 2,-9 5,-23 4,-23 4,-25 7,-47 1,-10 0,-1 2,-13 1,-10 1,-20 2,-30 0,-1 0,-2 0,-2 2,-13 1,-26 1,-38 1,-20 3,-29 5,-54 4,-18 15,-93 16,-110 7,-37 10,-57 15,-89 4,-25 7,-51 12,-82 3,-26 3,-32 9,-59 6,-24 9,-54 10,-67 2,-13 6,-26 10,-39 5,-28 13,-56 19,-84 4,-17 10,-33 14,-49 6,-20 10,-41 15,-61 3,-10 6,-20 10,-30 3,-10 5,-21 8,-31 8,-31 15,-62 23,-92 10,-38 20,-105 23,-129 4,-22 11,-43 16,-64 4,-22 8,-43 11,-65 2,-13 4,-26 4,-39 0,-21 -2,-42 0,-63 0,-22 2,-34 6,-55 3,-12 5,-24 8,-37 6,2 12,4 19,6 13,3 25,5 38,7 23,4 47,8 70,9 21,2 41,1 62,2 18,0 36,2 55,2 0,1 0,1 0,2 0,-1 1,-1 1,-2 5,0 10,0 15,-1 0,0 1,0 1,0 -16,32 -27,66 -38,100 -6,21 -11,43 -14,65 -7,28 -10,56 -13,84 -2,16 -2,14 -3,32 -1,17 -1,33 -2,50 0,7 0,14 0,20 -8,10 -15,20 -20,31 6,-6 14,-13 20,-17 0,1 0,2 0,3 -1,12 0,24 1,35 1,-3 1,-7 2,-11 2,-12 6,-24 9,-36 5,-3 11,-6 16,-9 25,-15 51,-27 76,-41 4,1 8,0 11,-2 0,0 0,0 0,0 0,0 1,0 1,-1 1,-1 2,-2 3,-4 1,-1 1,-3 2,-4 1,-4 1,-7 -1,-11 -1,-7 -3,-14 -5,-21 -5,-27 -7,-48 -12,-75 10,-5 20,-9 30,-15 11,-8 23,-13 33,-21 10,-6 18,-13 28,-19 9,-6 4,-1 13,-7 9,-9 3,-23 -8,-25 -12,-19 -22,-40 -35,-58 -19,-28 -36,-48 -52,-70 -10,-10 -17,-21 -25,-31 3,-5 5,-11 8,-16 4,-6 14,-36 19,-51 8,-19 15,-38 21,-58 5,-14 8,-29 12,-44 6,-19 12,-39 18,-58 4,-13 6,-26 9,-39 3,-12 7,-24 10,-35 6,-19 10,-38 16,-56 10,-30 18,-61 28,-91 7,-23 11,-46 16,-69 3,-15 7,-31 10,-46 9,-42 16,-84 26,-125 7,-31 6,-45 11,-71 5,-29 12,-58 16,-88 9,-64 14,-130 13,-195l0 0zm-214 1104c11,20 22,39 33,58 11,19 21,38 33,56 -1,1 -2,2 -3,3 -12,12 -25,24 -38,35 -5,5 -10,11 -16,15 -4,3 -8,7 -12,10 0,-2 -1,-4 -1,-5 0,2 -1,5 -1,7 -2,2 -5,4 -7,6 -4,3 -8,5 -11,9 -3,4 5,1 6,0 -1,0 -2,0 -3,0 0,0 0,0 0,0 4,-2 9,-4 13,-6 -5,30 -8,59 -5,89 -4,2 -8,5 -12,6 -22,13 -44,27 -62,45 -1,0 -1,1 -1,1 3,-15 7,-30 10,-44 2,-12 6,-23 8,-35 4,-19 6,-38 10,-57 6,-28 6,-53 9,-81 2,-16 4,-32 8,-55 3,-22 5,-41 9,-62 4,0 9,1 13,1 6,0 13,-1 19,-1 1,1 1,3 2,4l0 0zm-5 -11c0,0 0,0 0,0 -6,-1 -12,-2 -18,-3 -5,-1 -9,-3 -14,-3 -1,0 -3,0 -5,-1 6,-10 13,-20 18,-30 2,4 4,8 5,13 4,8 9,16 13,25l0 0z"/>
   <path class="fil12" d="M5030 3223c0,4 -3,8 -6,11 -2,4 -4,9 -6,13 -10,27 -23,53 -37,79 -14,24 -22,51 -32,77 -7,17 -9,35 -14,52 -9,27 -19,53 -27,80 -4,15 -8,29 -11,43 -4,20 -6,40 -10,60 -3,16 -7,32 -10,48 -3,16 -5,32 -8,49 -5,32 -8,65 -10,98 -2,34 -5,68 -7,102 -1,32 0,64 -1,95 0,28 -4,56 -2,84 1,30 3,60 10,89 7,29 14,57 25,85 -2,-16 -3,-31 -4,-47 -1,-17 -2,-34 -2,-51 0,-47 3,-95 6,-142 1,-39 0,-78 2,-117 4,-53 7,-131 12,-167 3,-22 6,-44 10,-66 3,-17 8,-33 10,-50 5,-29 8,-58 17,-87 8,-32 20,-62 31,-93 4,-11 5,-23 8,-34 7,-23 14,-47 20,-70 8,-26 18,-51 24,-77 4,-14 4,-28 7,-42 1,-5 1,-9 4,-13 1,-2 1,-5 1,-8l0 0z"/>
   <path class="fil12" d="M4877 4402c-6,26 -11,51 -17,77 -4,28 -12,56 -15,84 -2,18 -4,37 -4,55 0,-1 0,-2 0,-4 -2,19 -3,37 -4,56 0,12 2,24 1,36 0,10 1,19 0,29 -1,4 -1,9 -2,13 3,-8 7,-16 9,-24 2,-8 4,-17 6,-26 2,-9 2,-12 3,-18 4,-20 9,-39 13,-58 4,-22 8,-44 12,-67 4,-17 8,-33 10,-50 3,-23 4,-32 7,-60 3,-45 6,-90 7,-135 -9,31 -17,61 -25,92l0 0z"/>
   <path class="fil12" d="M5926 1165c-6,-4 -6,-4 -11,-8 -5,-4 -10,-9 -17,-13 -6,-4 -14,-6 -21,-7 -9,-2 -19,-3 -28,-4 -21,2 -28,5 -42,12 -8,6 -18,11 -25,18 -7,9 -14,19 -18,29 1,-1 1,-2 2,-4 -6,14 -5,10 -10,25 -3,20 -2,8 -3,26 -1,8 -1,8 -1,10 -1,6 -3,13 -2,19 1,16 2,33 5,49 1,4 1,4 1,10 2,9 4,18 5,26 0,4 1,8 2,12 0,-1 0,-2 0,-3 0,-9 2,-18 2,-28 0,-19 3,-38 4,-57 1,-11 0,-7 2,-16 1,-5 3,-9 4,-14 2,-9 4,-17 7,-25 3,-6 7,-12 11,-19 1,-3 6,-9 13,-20 0,0 0,0 0,0 0,0 1,-1 1,-1 1,-1 3,-2 3,-3 13,-10 18,-14 30,-18 10,-4 9,-3 13,-4 5,0 11,-1 16,-1 19,0 22,1 37,9 7,3 8,4 16,6 8,4 17,8 26,12 -8,-6 -15,-13 -23,-19l0 0z"/>
   <path class="fil12" d="M5728 1349c2,-15 1,-30 1,-45 -1,-11 -1,-23 -2,-34 -1,-10 -1,-20 -4,-30 -1,-7 -3,-14 -5,-20 -4,-12 -8,-24 -17,-33 -7,-8 -7,-8 -12,-13 -8,-7 -18,-11 -28,-13 -14,-2 -28,-2 -41,2 -7,2 -13,3 -20,7 -2,1 -4,2 -5,4 0,0 0,0 1,1 0,1 1,0 2,1 -5,-2 9,-3 11,-4 10,0 18,0 27,1 3,1 12,3 17,4 10,3 10,3 18,8 4,3 2,1 10,11 1,2 1,1 6,8 2,3 3,6 5,9 5,17 7,20 11,37 0,1 0,1 0,2 -3,-5 -6,-9 -8,-14 -3,-6 -5,-13 -10,-18 -7,-6 -15,-9 -23,-12 0,0 -1,0 -1,0 0,0 0,0 0,0 -4,-2 -9,-3 -14,-4 -9,-1 -24,4 -26,5 -7,2 -14,5 -20,10 -10,10 -13,24 -14,38 5,-11 13,-25 22,-29 0,1 0,3 0,5 0,1 -1,2 -1,3 0,2 0,5 1,7 1,2 1,5 3,7 0,1 0,3 0,4 1,2 2,4 4,6 5,5 14,6 21,3 10,-1 20,-9 21,-20 1,-6 1,-13 -3,-19 0,0 -1,-1 -1,-1 2,0 3,1 5,1 7,1 17,3 21,5 3,2 8,9 12,14 4,4 8,8 12,12 1,5 2,10 3,14 2,8 4,17 5,25 4,16 5,25 8,41 1,4 1,10 2,16 2,7 3,14 4,21 0,1 1,2 1,3 0,-1 0,-1 0,-2 0,-5 1,-9 1,-14 0,-4 -1,-8 0,-11l0 0z"/>
   <g>
    <path class="fil12" d="M5784 1475c0,0 0,0 0,0 0,0 0,0 0,0 0,0 0,0 0,0z"/>
    <path class="fil12" d="M5784 1475c0,0 0,0 0,0 0,0 0,0 0,0z"/>
    <path class="fil12" d="M5784 1474c-1,0 -1,0 -1,0 -3,2 -7,4 -10,6 -9,4 -12,7 -21,9 -1,0 -8,0 -11,0 -3,-1 -6,-2 -10,-5 -7,-4 -13,-7 -20,-11 5,6 10,12 15,17 3,4 8,7 12,8 7,2 16,2 22,-2 8,-5 12,-9 19,-16 2,-2 4,-5 5,-7 0,0 0,0 0,0z"/>
   </g>
   <path class="fil12" d="M5973 1252c-9,-1 -17,-6 -24,-11 -4,-2 -11,-7 -13,-8 -2,-2 -5,-6 -8,-9 -5,-5 -10,-10 -16,-15 5,4 -7,-6 -2,-2 -9,-8 -19,-17 -31,-18 -7,-1 -21,-3 -35,-1 -5,0 -10,1 -14,3 -5,1 -10,2 -14,5 -10,7 -14,10 -25,22 -8,11 -14,23 -19,36 14,-17 23,-28 38,-37 8,-5 12,-9 20,-10 0,0 1,0 2,0 0,0 0,1 0,1 -1,6 -1,12 -1,17 1,-5 1,-10 3,-14 -1,5 -2,10 -2,16 1,3 2,5 3,8 1,2 3,3 5,5 0,0 0,0 1,0 4,3 10,5 15,6 14,3 24,-12 24,-25 0,-5 0,-9 -2,-13 1,0 3,1 6,2 8,5 7,4 13,10 6,4 12,8 17,12 5,3 7,7 15,11 6,3 13,5 20,7 1,0 3,1 3,1 3,1 5,2 8,2 4,1 8,0 12,0 2,0 4,0 6,1 -2,-1 -5,-2 -7,-3l0 0z"/>
   <path class="fil12" d="M5792 1373c0,2 -1,4 -1,5 -5,15 -6,13 -20,12 -5,0 -11,2 -14,6 -2,3 -5,7 -7,8 0,0 -4,2 -10,3 0,0 -1,0 -2,0 -2,-2 -2,-4 -5,-8 -4,-4 -9,-6 -14,-7 -4,-1 -9,-1 -14,-2 -5,-3 -5,-9 -7,-14 -3,22 8,18 21,27 3,2 3,2 4,3 0,0 0,1 0,1 1,3 3,7 6,10 7,7 25,2 31,-6 2,-2 4,-6 6,-9 1,-1 3,-2 3,-2 0,0 0,0 0,0 3,-2 18,1 22,-11 1,-6 1,-12 1,-17l0 0z"/>
   <path class="fil12" d="M5740 1433c0,6 0,12 2,18 1,-6 0,-12 -2,-18z"/>
   <path class="fil12" d="M5972 3367c-5,-31 -9,-62 -19,-92 -14,-43 -34,-83 -57,-122 12,37 23,73 33,110 8,30 13,62 20,92 4,15 10,46 11,53 1,9 2,17 3,26 0,3 0,5 1,8l0 0c0,1 0,3 1,4 2,2 6,2 8,-1 0,-1 0,-2 1,-3l0 0c0,0 0,0 0,0 1,-4 1,-9 1,-13 2,-20 0,-41 -3,-61l0 0z"/>
   <path class="fil12" d="M5245 4854c-12,21 -21,44 -28,67 -8,27 -11,54 -18,81 -9,41 -16,82 -25,122 -4,26 -3,33 -9,60 -10,44 -25,86 -35,129 -3,13 -9,24 -13,37 -7,23 -15,45 -23,67 -8,25 -15,49 -23,74 -4,11 -6,23 -10,35 -13,36 -22,51 -34,87 -3,8 -6,15 -9,23 -3,9 -5,19 -8,28 -4,15 -9,30 -15,45 -3,11 -5,21 -8,32 -4,15 -10,30 -13,45 -3,20 -5,26 -6,51 0,17 -3,33 -2,50 1,15 5,30 8,45 8,43 26,83 33,126 0,3 1,6 1,9 0,-7 1,-14 1,-21 -1,-16 -1,-32 -4,-48 -1,-7 -3,-23 -5,-35 -1,-8 -3,-26 -5,-44 -2,-15 -4,-22 -2,-42 2,-12 3,-27 4,-48 1,-13 3,-30 9,-51 6,-17 11,-34 15,-52 3,-11 8,-21 12,-32 9,-30 14,-50 23,-71 9,-26 13,-34 24,-60 8,-19 16,-38 21,-59 5,-15 11,-30 15,-45 6,-19 12,-39 19,-58 8,-22 14,-45 23,-68 5,-14 7,-28 11,-42 9,-28 16,-56 23,-84 6,-23 9,-47 11,-71 4,-22 9,-44 13,-67 5,-30 12,-60 18,-90 7,-39 14,-79 29,-117 9,-22 35,-66 55,-93 -28,24 -54,51 -73,82l0 0z"/>
   <path class="fil12" d="M5295 4450c-4,-6 -11,-9 -16,-13 -6,-5 -13,-11 -21,-10 3,1 6,2 8,4 3,3 5,6 7,9 2,2 6,7 9,10 1,1 1,1 2,2 3,6 3,8 3,14 0,9 0,8 -3,18 -1,2 -2,5 -3,6 0,1 -1,2 -1,3 -3,3 -6,6 -9,9 -8,8 -3,4 -13,10 -2,1 -3,2 -5,3 -1,0 -2,0 -3,1 -11,0 -5,0 -14,-1 -9,-2 -8,-2 -11,-4 0,0 0,0 0,0 -7,-6 -5,-6 -13,-16 0,0 0,0 0,0 -5,-8 -3,-4 -7,-12 0,-1 -1,-3 -1,-6 1,-9 1,-7 1,-13 0,0 0,0 0,0 0,-1 0,-2 1,-2 0,-1 1,-2 1,-4 0,-1 1,-2 1,-3 3,-6 3,-7 5,-10 3,-4 5,-9 8,-13 5,-5 12,-8 18,-11 -7,1 -15,1 -21,5 -6,4 -12,9 -17,14 -3,4 -6,7 -10,13 -4,7 -6,13 -8,25 0,12 4,23 10,33 2,4 4,9 7,13 9,14 25,19 41,20 6,0 13,0 19,-2 6,-2 12,-7 17,-11 5,-4 9,-9 12,-14 4,-6 8,-13 10,-20 4,-16 3,-33 -6,-47l0 0z"/>
   <path class="fil12" d="M5073 4468c-1,-15 -5,-30 -14,-42 -11,-15 -33,-21 -49,-12 16,-3 31,6 37,18 3,8 3,12 4,19 0,0 0,0 0,1 0,0 0,1 0,1 1,9 -1,17 -2,26 0,0 0,0 0,0 -3,10 -1,4 -6,12 -10,9 -8,7 -22,15 -1,0 -2,1 -3,1 -1,0 -1,0 -2,1 -1,0 -1,0 -1,0 -1,0 -2,0 -3,0 -14,-1 -11,0 -18,-2 -2,0 -5,-2 -14,-8 -2,-1 -4,-2 -6,-3 0,0 -1,-1 -1,-1 -1,-2 -3,-4 -4,-7 -1,-2 -3,-8 -3,-10 -3,-12 -2,-9 -4,-21 0,-2 0,-3 0,-5 0,-1 1,-4 1,-5 4,-16 4,-17 16,-30 3,-3 5,-5 11,-8 6,-2 12,-3 18,-3 0,0 0,0 0,0 0,0 0,0 0,0 0,0 0,0 0,0 0,0 0,0 0,0 0,0 0,0 0,0 0,0 0,0 0,0 0,0 0,0 0,0 0,0 0,0 0,0 -4,-2 -9,-2 -13,-3 -7,-1 -13,1 -19,4 -20,9 -31,30 -35,45 -3,19 -2,39 6,56 4,8 11,13 18,18 8,6 16,11 26,13 14,2 28,4 41,-3 16,-10 33,-22 38,-41 3,-9 2,-18 1,-27l0 0z"/>
   <path class="fil12" d="M5028 4447c-4,-4 -10,-6 -15,-7 -6,-1 -13,2 -18,6 -5,0 -10,3 -11,11 -4,27 21,31 39,17 8,-7 11,-19 4,-28l0 0zm-24 20c-1,0 -2,1 -3,1 0,0 0,0 -1,0 0,0 0,0 -1,0 0,0 0,0 0,0 0,0 -1,0 -1,0 0,0 0,0 0,0 0,0 0,0 0,0 0,0 -1,-1 -1,-1 0,0 0,0 0,-1 0,-1 -1,-3 -1,-3 -1,-3 -1,-5 -1,-7 0,-1 1,-2 2,-2 5,-2 11,-2 16,-2 0,0 1,1 1,1 1,1 2,2 4,3 0,0 0,0 1,1 0,0 0,0 0,0 0,0 0,1 0,1 0,8 -7,10 -14,12l0 0z"/>
   <path class="fil12" d="M5254 4459c-5,-1 -11,-1 -16,0 -9,-2 -17,-1 -20,11 -7,17 15,30 30,27 19,-2 25,-31 6,-38zm-5 22c-2,1 -2,1 -8,1 -1,0 -5,-2 -7,-2 0,0 0,0 0,0 -1,-1 -4,-3 -4,-2 0,0 -1,-1 -1,-1 -1,-1 -1,-5 0,-8 0,0 0,-1 0,-1 0,0 0,-1 0,-1 0,0 1,-1 0,0 3,-2 8,-2 13,-3 2,1 3,1 5,2 1,0 2,1 3,1 4,4 3,3 3,7 0,0 0,0 0,0 0,1 -1,2 -1,3 -1,2 -2,3 -4,5l0 0z"/>
   <path class="fil12" d="M5691 3884c-2,12 -3,23 -6,35 -3,11 -5,22 -6,34 0,0 -3,14 -2,18 0,7 1,14 2,21 0,0 0,0 0,0 0,0 0,0 0,0 1,-8 2,-16 4,-24 3,-10 6,-20 7,-30 4,-18 3,-36 0,-54l0 0z"/>
   <path class="fil12" d="M6060 3903c-2,2 -6,3 -8,4 -5,2 -9,5 -13,8 -17,13 -33,29 -42,49 9,-13 20,-23 32,-34 9,-9 19,-18 31,-24 2,-2 4,-4 5,-6 -2,2 -3,3 -5,4l0 0z"/>
   <path class="fil14" d="M6000 3506c0,-1 0,-3 -1,-4 -2,-9 -4,-18 -6,-26 2,-1 4,-3 5,-5 3,-5 2,-11 2,-16 -4,-41 -10,-83 -16,-124 -2,-13 -4,-27 -6,-40 -1,-14 -1,-41 -22,-37 0,0 -1,0 -1,0 0,-3 -1,-6 -1,-9 -1,-4 0,-9 -2,-13 -1,-2 -2,-3 -3,-5 0,-6 -1,-12 -1,-18 0,-6 0,-12 -6,-16 -4,-3 -9,-3 -13,-2 -4,-22 -7,-45 -11,-67 -1,-4 -4,-7 -8,-8 0,-4 -1,-7 -2,-11 -3,-9 -16,-11 -22,-4 -3,3 -4,6 -4,10 -1,7 -1,14 -1,21 1,22 2,44 4,67 3,30 9,60 18,89 3,12 8,24 13,35 3,6 6,13 12,17 1,0 1,1 2,1 1,3 2,6 2,9 1,4 2,9 4,13 7,47 18,94 35,138 3,7 4,15 10,20 7,4 17,0 19,-8 1,-3 0,-5 0,-8l0 0z"/>
   <path class="fil14" d="M6097 3870c0,-6 -7,-12 -14,-10 -3,0 -5,2 -8,4 -1,0 -1,1 -2,1 -3,-4 -8,-8 -13,-6 -14,7 -25,21 -34,33 -7,9 -14,18 -19,29 -4,4 -7,8 -11,12 -6,6 -11,13 -16,19 -3,3 -7,7 -10,10 -2,2 -4,3 -6,6 -1,1 -2,2 -2,2 1,0 1,-1 2,-1 0,0 0,0 0,1 -4,8 3,18 12,18 2,0 4,-1 6,-2 3,2 8,3 12,2 6,-2 10,-6 14,-11 4,-4 8,-8 12,-11 1,4 3,8 9,10 20,4 37,-32 42,-48 2,-6 3,-11 5,-17 6,-9 12,-19 19,-28 3,-4 6,-8 5,-13l0 0zm-36 4c0,0 0,0 0,0 0,1 0,1 0,2 -7,2 -13,7 -18,11 -3,2 -5,4 -8,6 8,-7 15,-14 25,-19l0 0z"/>
   <path class="fil10" d="M5150 4443c-16,0 -16,23 0,24 16,0 16,-23 0,-24z"/>
   <path class="fil10" d="M5263 4418c-1,-1 -2,-1 -4,-1 -5,-2 -10,-4 -15,-4 -7,0 -15,-1 -22,1 -9,1 -19,6 -25,13 -4,4 -8,8 -11,12 -3,5 -5,11 -6,16 -2,7 -2,13 -2,20 0,1 0,2 0,3 -1,10 0,15 2,23 1,9 6,16 10,23 3,4 7,7 10,10 4,4 7,8 12,11 -1,-1 -1,-2 -2,-3 -5,-7 -7,-12 -12,-17 -1,-1 -2,-3 -4,-6 0,-2 -1,-3 -1,-5 1,1 1,1 2,2 3,3 5,7 9,9 -3,-3 -4,-7 -6,-10 -2,-3 -5,-7 -7,-11 0,-1 -1,-3 -1,-4 0,-3 -1,-7 -1,-11 0,-3 0,-7 0,-10 1,-6 1,-7 2,-11 0,-2 0,-4 1,-6 1,-4 3,-8 4,-11 3,-7 5,-8 10,-14 8,-11 16,-15 32,-18 6,-2 12,-4 19,-3 2,0 3,0 5,0 1,0 2,0 3,0 0,0 0,0 0,0 0,0 0,0 0,0l0 0z"/>
   <g>
    <g id="_1672991666048">
     <path class="fil10" d="M5172 4487c0,0 0,1 0,1 0,0 0,0 0,0 0,0 0,-1 0,-1l0 0z"/>
     <path class="fil10" d="M5322 4512c0,0 0,0 0,0 0,0 0,0 0,0 7,-11 6,-24 4,-36 -1,-10 -4,-19 -8,-28 -1,-4 -3,-8 -7,-12 -4,-4 -10,-6 -16,-5 -1,0 -3,0 -4,0 -4,-5 -9,-6 -15,-5 0,0 -1,0 -1,-1 0,0 -1,-1 -1,-1 -1,-2 -2,-3 -4,-3 0,0 0,0 -1,0 0,0 0,0 -1,0 -2,0 -3,0 -5,0 -1,0 -1,0 -2,-1 -4,-1 -9,-2 -13,-2 1,0 2,1 3,1 0,0 -1,0 -1,0 -3,0 -4,4 -3,6 0,1 0,2 0,2 0,0 -1,0 -1,0 0,-3 0,-5 0,-8 -2,-5 -6,-10 -11,-10 -1,0 -2,0 -2,0 -4,-3 -10,-4 -14,-2 -5,3 -6,8 -7,13 0,2 -1,3 -1,5 -1,0 -1,0 -2,1 -6,0 -11,4 -15,12 0,0 0,0 0,0 -10,-2 -16,5 -21,18 -2,10 -2,20 0,29 0,0 0,-1 0,-1 0,1 0,1 0,2 0,0 0,0 0,0 0,0 0,0 0,0 1,10 3,19 7,28 1,2 1,3 2,5 5,16 11,32 19,45 11,15 26,12 32,-2 4,-2 7,-4 10,-7 1,-1 3,-1 4,-2 1,0 2,-1 3,-1 3,5 7,8 12,9 8,1 15,-4 19,-11 2,-1 3,-2 5,-3 4,-3 6,-6 8,-10 3,-2 6,-5 8,-9 6,-1 11,-5 14,-11 0,-1 0,-1 1,-2 2,-1 3,-2 4,-4 0,0 0,0 0,0 0,0 0,0 0,0 0,0 1,-1 1,-1 0,0 0,-1 1,-1l0 0z"/>
    </g>
    <polygon class="fil10" points="5265,4429 5265,4429 5265,4429 "/>
   </g>
   <path class="fil10" d="M5081 4451c0,0 0,-1 0,-1 2,-8 3,-16 -1,-20 -1,-1 -1,-2 -2,-2 0,-6 -3,-10 -7,-13 0,-4 -1,-8 -4,-11 -3,-3 -8,-5 -13,-3 -1,0 -2,-1 -3,-1 -2,-2 -4,-3 -6,-3 0,0 0,0 0,-1 -4,-11 -14,-11 -22,-6 0,0 0,0 0,0 -3,-4 -8,-5 -12,-4 0,0 0,-1 0,-1 2,-7 -4,-15 -12,-15 -1,0 -2,0 -3,1 -3,-1 -6,-1 -9,1 -6,2 -9,8 -12,13 -1,2 -3,5 -4,7 -6,0 -10,5 -14,10 -6,8 -10,18 -12,28 -2,3 -3,5 -5,8 -3,5 -6,11 -8,17 -2,7 -3,15 -4,22 0,0 0,-1 0,-1 0,2 -1,4 -1,6 -1,6 0,13 3,19 0,0 0,0 0,0l0 0c0,0 0,0 0,0 0,1 0,2 1,3 1,2 1,3 3,4 1,2 2,4 3,6 0,1 1,3 1,4 1,1 2,2 3,3 0,0 1,1 1,1 0,2 0,4 2,6 2,3 4,5 7,5 2,5 7,8 12,8 0,0 0,0 0,0 0,0 1,0 1,1 0,0 0,1 0,1 0,3 1,6 2,9 4,7 11,7 17,4 1,0 1,0 2,-1 1,1 2,2 3,3 7,6 15,2 21,-4 1,0 1,0 2,0 6,8 17,6 24,-2 3,-5 6,-8 7,-11 7,2 16,-3 17,-11 8,-3 11,-14 13,-22 5,-16 8,-33 9,-50 0,-2 0,-5 0,-7l0 0z"/>
   <path class="fil12" d="M5266 4492c-1,-5 -3,-11 -8,-14 -2,-2 -4,-5 -6,-6 -2,-1 -4,-2 -6,-1 0,0 0,0 0,0 0,0 0,0 0,0 0,0 0,0 0,0 0,0 0,0 0,0 0,0 0,0 0,0 2,0 5,2 6,4 2,3 4,7 5,9 3,8 1,16 -1,21 -3,7 -2,11 -7,15 0,0 0,0 0,0 -6,3 -10,7 -15,8 -10,3 -10,4 -18,4 -6,0 -8,0 -16,-5 -11,-4 -8,-7 -14,-18 -3,-8 -3,-10 -2,-23 1,-3 3,-7 3,-11 1,-2 1,-4 2,-6 3,-5 9,-7 13,-9 -7,1 -15,2 -19,7 -2,3 -3,6 -4,9 -6,10 -7,22 -5,33 1,6 2,5 3,11 2,6 2,8 7,13 3,3 7,5 11,7 13,9 30,8 44,2 4,-2 8,-4 12,-8 0,0 1,0 1,-1 6,-4 12,-10 13,-18 1,-3 1,-5 1,-8 0,0 0,0 0,0 2,-6 1,-11 0,-17l0 0z"/>
   <path class="fil12" d="M5048 4465c0,-8 -3,-13 -8,-18 -3,-4 -7,-8 -12,-9 -1,0 -1,0 -2,0 0,0 1,0 1,0 3,2 5,5 7,8 1,1 1,1 1,2 1,3 3,8 3,11 0,5 -3,12 -6,17 -8,11 -2,5 -12,13 -8,5 -6,4 -12,7 -6,1 -1,1 -14,1 -11,0 -9,0 -20,-2 -3,0 -5,-2 -9,-7 0,0 0,0 0,0 -1,-3 -3,-5 -4,-8 -3,-5 -4,-11 -4,-18 -2,-11 2,-23 12,-28 -12,3 -19,16 -20,28 -1,7 -1,15 1,22 1,6 4,13 8,18 5,8 17,11 18,12 10,4 13,3 19,4 10,1 21,0 30,-6 6,-5 13,-10 17,-17 1,-1 2,-5 2,-6 3,-7 5,-15 5,-22l0 0z"/>
   <path class="fil12" d="M5237 4481c0,-1 -1,-2 -2,-3 0,1 0,3 0,5 -1,4 -2,9 -5,12 -3,3 -6,7 -10,10 -2,1 -4,1 -6,1 -3,0 -6,-1 -9,-2 5,3 11,8 16,6 6,-2 12,-8 15,-14 2,-5 2,-10 0,-15l0 0z"/>
   <path class="fil12" d="M5407 2257c-1,2 -2,4 -3,6 -1,2 -2,5 -4,7 -1,1 -3,2 -5,2 -3,1 -7,1 -10,1 -8,0 -15,0 -23,-1 12,6 31,13 42,1 3,-4 3,-9 4,-13 0,-1 0,-3 0,-4l0 0z"/>
   <path class="fil12" d="M5864 2376c-5,3 -8,4 -14,5 -5,1 -9,-1 -14,-1 -12,-2 -25,-3 -40,-4 17,8 35,16 54,13 4,-1 8,-3 12,-6 2,-2 4,-5 7,-8 1,-1 1,-1 2,-2 -2,1 -4,2 -6,3l0 0z"/>
   <path class="fil12" d="M6924 2393c-9,-1 -16,-5 -25,-6 -12,-1 -22,-5 -33,-9 -14,-4 -28,-7 -41,-11 -21,-7 -42,-13 -63,-20 -6,-2 -13,-5 -19,-7 -8,-4 -15,-8 -24,-10 -28,-10 -37,-16 -65,-30 -10,-4 -18,-11 -27,-16 -16,-10 -32,-20 -49,-30 -17,-9 -32,-20 -51,-27 -15,-8 -29,-18 -44,-27 -8,-4 -17,-8 -25,-11 -1,-1 -3,-1 -4,-2 -8,-5 -15,-10 -23,-15 -7,-4 -15,-7 -23,-11 -15,-8 -17,-10 -24,-16 -9,-7 -17,-16 -24,-25 -9,-11 -21,-21 -30,-32 0,0 -1,-1 -1,-2 -14,-19 -26,-39 -39,-59 -13,-18 -28,-34 -42,-51 -5,-7 -9,-14 -13,-21 -6,-9 -14,-18 -21,-27 -21,-21 -43,-41 -65,-61 11,16 22,33 33,49 7,10 15,20 20,31 4,8 9,15 12,23 5,11 9,22 17,32 16,24 25,34 37,53 7,12 15,24 23,35 10,15 21,29 34,41 10,9 17,20 27,29 7,6 14,13 22,19 10,6 20,11 30,16 12,5 22,14 34,21 16,7 14,6 32,15 7,4 14,9 22,14 15,10 28,15 36,18 33,19 66,37 97,58 6,4 14,7 21,10 8,4 15,8 23,12 15,8 31,13 47,19 0,0 1,0 1,0 7,3 15,7 23,9 16,5 32,8 48,11 23,4 40,8 73,9 12,1 22,4 38,2 10,-1 20,1 30,-1 4,0 -2,-1 -3,-1l0 0z"/>
   <path class="fil12" d="M5065 2071c-16,-1 -32,-3 -48,-4 -17,-1 -35,-2 -52,-3 -18,-2 -36,-2 -55,-3 -18,-1 -37,-2 -55,-1 -28,0 -56,0 -84,0 -30,2 -59,2 -89,2 -21,-1 -43,3 -64,1 -20,-4 -40,-8 -60,-11 -9,-2 -17,-5 -26,-7 -10,-2 -19,-3 -29,-4 -16,-2 -10,-1 -25,-4 -10,-2 -20,-3 -30,-7 -10,-4 -20,-6 -31,-8 -9,-3 -18,-6 -28,-8 -31,-9 -43,-14 -69,-26 -21,-9 -40,-21 -60,-33 -11,-7 -22,-13 -32,-20 -11,-6 -22,-12 -33,-19 -19,-14 -41,-24 -61,-35 -30,-16 -60,-33 -90,-51 -16,-11 -33,-21 -49,-31 -12,-7 -23,-16 -35,-22 -18,-8 -35,-18 -53,-26 -26,-11 -38,-17 -69,-28 -43,-13 -86,-22 -130,-29 42,19 85,37 127,56 39,22 80,40 119,61 27,17 54,35 81,51 33,19 66,38 99,56 17,8 34,19 50,29 17,9 34,20 51,29 17,10 33,21 50,29 21,10 43,20 65,27 8,2 15,5 23,7 11,3 22,5 32,9 13,3 25,5 38,10 20,6 53,9 61,10 15,1 30,6 45,10 10,2 20,3 30,5 13,3 25,5 38,7 18,2 36,-1 53,-1 24,-1 49,0 73,-1 14,-1 29,-2 43,-2 25,-1 51,0 76,-1 22,-1 44,-1 66,-3 24,-2 47,-3 71,-7 9,-1 51,-5 69,-8 2,0 3,0 5,-1 -3,0 -6,0 -9,-1l0 0z"/>
  </g>
 </g>
</svg>
